<?xml version="1.0" encoding="UTF-8" standalone="no"?>
<!DOCTYPE svg PUBLIC "-//W3C//DTD SVG 1.1//EN"
 "http://www.w3.org/Graphics/SVG/1.1/DTD/svg11.dtd">
<!-- Generated by graphviz version 14.1.1 (20251213.1925)
 -->
<!-- Title: G Pages: 1 -->
<svg width="2406pt" height="1348pt"
 viewBox="0.00 0.00 2406.00 1348.00" xmlns="http://www.w3.org/2000/svg" xmlns:xlink="http://www.w3.org/1999/xlink">
<g id="graph0" class="graph" transform="scale(1 1) rotate(0) translate(4 1343.5)">
<title>G</title>
<polygon fill="white" stroke="none" points="-4,4 -4,-1343.5 2402,-1343.5 2402,4 -4,4"/>
<g id="clust1" class="cluster">
<title>cluster_[9]Blackjack</title>
<polygon fill="none" stroke="black" points="8,-80 8,-1331.5 1869,-1331.5 1869,-80 8,-80"/>
<text xml:space="preserve" text-anchor="middle" x="938.5" y="-1314.2" font-family="Times,serif" font-size="14.00">Blackjack</text>
</g>
<g id="clust2" class="cluster">
<title>cluster_[7]Playing</title>
<polygon fill="none" stroke="black" points="16,-441.25 16,-1298.25 1471,-1298.25 1471,-441.25 16,-441.25"/>
<text xml:space="preserve" text-anchor="middle" x="743.5" y="-1280.95" font-family="Times,serif" font-size="14.00">Playing</text>
</g>
<g id="clust3" class="cluster">
<title>cluster_[5]Lobby</title>
<polygon fill="none" stroke="black" points="1877,-8 1877,-263.25 2390,-263.25 2390,-8 1877,-8"/>
<text xml:space="preserve" text-anchor="middle" x="2133.5" y="-245.95" font-family="Times,serif" font-size="14.00">Lobby</text>
</g>
<!-- [9]Blackjack[5]Hello -->
<g id="node1" class="node">
<title>[9]Blackjack[5]Hello</title>
<path fill="white" stroke="black" d="M1759,-568.88C1759,-568.88 1701,-568.88 1701,-568.88 1695,-568.88 1689,-562.88 1689,-556.88 1689,-556.88 1689,-544.88 1689,-544.88 1689,-538.88 1695,-532.88 1701,-532.88 1701,-532.88 1759,-532.88 1759,-532.88 1765,-532.88 1771,-538.88 1771,-544.88 1771,-544.88 1771,-556.88 1771,-556.88 1771,-562.88 1765,-568.88 1759,-568.88"/>
<text xml:space="preserve" text-anchor="middle" x="1730" y="-548.08" font-family="Times,serif" font-size="14.00">【Hello】</text>
</g>
<!-- [9]Blackjack[5]Hello[11]Initial Cut -->
<g id="node2" class="node">
<title>[9]Blackjack[5]Hello[11]Initial Cut</title>
<text xml:space="preserve" text-anchor="middle" x="1660" y="-474.45" font-family="Times,serif" font-size="14.00">[Initial Cut]</text>
<text xml:space="preserve" text-anchor="middle" x="1660" y="-457.2" font-family="Times,serif" font-size="14.00">trans: (compose initial&#45;cut&#45;messsage reset&#45;shoe)</text>
</g>
<!-- [9]Blackjack[5]Hello&#45;&gt;[9]Blackjack[5]Hello[11]Initial Cut -->
<g id="edge5" class="edge">
<title>[9]Blackjack[5]Hello&#45;&gt;[9]Blackjack[5]Hello[11]Initial Cut</title>
<path fill="none" stroke="red" d="M1714.46,-532.48C1703.67,-520.39 1689.25,-504.25 1677.96,-491.61"/>
</g>
<!-- [9]Blackjack[4]Idle -->
<g id="node3" class="node">
<title>[9]Blackjack[4]Idle</title>
<path fill="white" stroke="black" d="M1285.38,-413.25C1285.38,-413.25 1112.62,-413.25 1112.62,-413.25 1106.62,-413.25 1100.62,-407.25 1100.62,-401.25 1100.62,-401.25 1100.62,-379 1100.62,-379 1100.62,-373 1106.62,-367 1112.62,-367 1112.62,-367 1285.38,-367 1285.38,-367 1291.38,-367 1297.38,-373 1297.38,-379 1297.38,-379 1297.38,-401.25 1297.38,-401.25 1297.38,-407.25 1291.38,-413.25 1285.38,-413.25"/>
<text xml:space="preserve" text-anchor="middle" x="1199" y="-395.95" font-family="Times,serif" font-size="14.00">【Idle】</text>
<text xml:space="preserve" text-anchor="middle" x="1199" y="-374.95" font-family="Times,serif" font-size="14.00">trans: show&#45;player&#45;wallet</text>
</g>
<!-- [9]Blackjack[5]Hello[11]Initial Cut&#45;&gt;[9]Blackjack[4]Idle -->
<g id="edge6" class="edge">
<title>[9]Blackjack[5]Hello[11]Initial Cut&#45;&gt;[9]Blackjack[4]Idle</title>
<path fill="none" stroke="red" d="M1540.98,-449.27C1469.32,-437.08 1378.71,-421.68 1308.77,-409.79"/>
<polygon fill="red" stroke="red" points="1309.67,-406.39 1299.22,-408.16 1308.49,-413.29 1309.67,-406.39"/>
</g>
<!-- [9]Blackjack[4]Idle[3]Cut -->
<g id="node4" class="node">
<title>[9]Blackjack[4]Idle[3]Cut</title>
<text xml:space="preserve" text-anchor="middle" x="913" y="-313.7" font-family="Times,serif" font-size="14.00">[Cut]</text>
<text xml:space="preserve" text-anchor="middle" x="913" y="-296.45" font-family="Times,serif" font-size="14.00">when: bj&#45;state&#45;seen&#45;cut&#45;card?</text>
<text xml:space="preserve" text-anchor="middle" x="913" y="-279.2" font-family="Times,serif" font-size="14.00">trans: (compose (bj&#45;show &quot;Dealer collected discards and shuffled the shoe.&quot;) (compose reset&#45;shoe reset&#45;seen&#45;cut&#45;card))</text>
</g>
<!-- [9]Blackjack[4]Idle&#45;&gt;[9]Blackjack[4]Idle[3]Cut -->
<g id="edge7" class="edge">
<title>[9]Blackjack[4]Idle&#45;&gt;[9]Blackjack[4]Idle[3]Cut</title>
<path fill="none" stroke="red" d="M1118.98,-366.61C1082.38,-355.73 1038.94,-342.56 1001.38,-330.96"/>
</g>
<!-- [9]Blackjack[4]Idle[3]Bet -->
<g id="node5" class="node">
<title>[9]Blackjack[4]Idle[3]Bet</title>
<text xml:space="preserve" text-anchor="middle" x="1420" y="-296.45" font-family="Times,serif" font-size="14.00">[Bet]</text>
</g>
<!-- [9]Blackjack[4]Idle&#45;&gt;[9]Blackjack[4]Idle[3]Bet -->
<g id="edge9" class="edge">
<title>[9]Blackjack[4]Idle&#45;&gt;[9]Blackjack[4]Idle[3]Bet</title>
<path fill="none" stroke="blue" d="M1273.71,-366.57C1303.5,-356.76 1337.82,-344.45 1368,-331 1376.4,-327.26 1385.24,-322.63 1393.2,-318.18"/>
</g>
<!-- [9]Blackjack[4]Idle[11]Go to Lobby -->
<g id="node6" class="node">
<title>[9]Blackjack[4]Idle[11]Go to Lobby</title>
<text xml:space="preserve" text-anchor="middle" x="1778" y="-305.07" font-family="Times,serif" font-size="14.00">[Go to Lobby]</text>
<text xml:space="preserve" text-anchor="middle" x="1778" y="-287.82" font-family="Times,serif" font-size="14.00">trans: bj&#45;state&#45;player</text>
</g>
<!-- [9]Blackjack[4]Idle&#45;&gt;[9]Blackjack[4]Idle[11]Go to Lobby -->
<g id="edge11" class="edge">
<title>[9]Blackjack[4]Idle&#45;&gt;[9]Blackjack[4]Idle[11]Go to Lobby</title>
<path fill="none" stroke="blue" d="M1297.55,-374.32C1409.56,-357.49 1590.43,-330.31 1695.37,-314.54"/>
</g>
<!-- [9]Blackjack[4]Idle[3]Cut&#45;&gt;[9]Blackjack[4]Idle -->
<g id="edge8" class="edge">
<title>[9]Blackjack[4]Idle[3]Cut&#45;&gt;[9]Blackjack[4]Idle</title>
<path fill="none" stroke="red" d="M1014.18,-330.96C1048.96,-341.38 1087.34,-353.07 1120.1,-363.23"/>
<polygon fill="red" stroke="red" points="1118.94,-366.53 1129.53,-366.16 1121.02,-359.85 1118.94,-366.53"/>
</g>
<!-- [9]Blackjack[7]Betting -->
<g id="node7" class="node">
<title>[9]Blackjack[7]Betting</title>
<path fill="white" stroke="black" d="M1467.88,-224.88C1467.88,-224.88 1394.12,-224.88 1394.12,-224.88 1388.12,-224.88 1382.12,-218.88 1382.12,-212.88 1382.12,-212.88 1382.12,-200.88 1382.12,-200.88 1382.12,-194.88 1388.12,-188.88 1394.12,-188.88 1394.12,-188.88 1467.88,-188.88 1467.88,-188.88 1473.88,-188.88 1479.88,-194.88 1479.88,-200.88 1479.88,-200.88 1479.88,-212.88 1479.88,-212.88 1479.88,-218.88 1473.88,-224.88 1467.88,-224.88"/>
<text xml:space="preserve" text-anchor="middle" x="1431" y="-204.07" font-family="Times,serif" font-size="14.00">【Betting】</text>
</g>
<!-- [9]Blackjack[4]Idle[3]Bet&#45;&gt;[9]Blackjack[7]Betting -->
<g id="edge10" class="edge">
<title>[9]Blackjack[4]Idle[3]Bet&#45;&gt;[9]Blackjack[7]Betting</title>
<path fill="none" stroke="blue" d="M1422.02,-283.2C1423.58,-270.11 1425.78,-251.67 1427.61,-236.32"/>
<polygon fill="blue" stroke="blue" points="1431.03,-237.16 1428.74,-226.82 1424.08,-236.33 1431.03,-237.16"/>
</g>
<!-- [5]Lobby[5]Entry -->
<g id="node42" class="node">
<title>[5]Lobby[5]Entry</title>
<path fill="white" stroke="black" d="M2020.62,-230C2020.62,-230 1897.38,-230 1897.38,-230 1891.38,-230 1885.38,-224 1885.38,-218 1885.38,-218 1885.38,-195.75 1885.38,-195.75 1885.38,-189.75 1891.38,-183.75 1897.38,-183.75 1897.38,-183.75 2020.62,-183.75 2020.62,-183.75 2026.62,-183.75 2032.62,-189.75 2032.62,-195.75 2032.62,-195.75 2032.62,-218 2032.62,-218 2032.62,-224 2026.62,-230 2020.62,-230"/>
<text xml:space="preserve" text-anchor="middle" x="1959" y="-212.7" font-family="Times,serif" font-size="14.00">【Entry】</text>
<text xml:space="preserve" text-anchor="middle" x="1959" y="-191.7" font-family="Times,serif" font-size="14.00">trans: show&#45;wallet</text>
</g>
<!-- [9]Blackjack[4]Idle[11]Go to Lobby&#45;&gt;[5]Lobby[5]Entry -->
<g id="edge12" class="edge">
<title>[9]Blackjack[4]Idle[11]Go to Lobby&#45;&gt;[5]Lobby[5]Entry</title>
<path fill="none" stroke="blue" d="M1835.58,-279.92C1848.13,-274.93 1861.18,-269.27 1873,-263.25 1888.3,-255.46 1904.31,-245.65 1918.31,-236.46"/>
<polygon fill="blue" stroke="blue" points="1920.01,-239.54 1926.39,-231.08 1916.13,-233.71 1920.01,-239.54"/>
</g>
<!-- [9]Blackjack[7]Betting[15]Wallet is empty -->
<g id="node8" class="node">
<title>[9]Blackjack[7]Betting[15]Wallet is empty</title>
<text xml:space="preserve" text-anchor="middle" x="1363" y="-130.45" font-family="Times,serif" font-size="14.00">[Wallet is empty]</text>
<text xml:space="preserve" text-anchor="middle" x="1363" y="-113.2" font-family="Times,serif" font-size="14.00">when: (compose zero? (compose player&#45;wallet bj&#45;state&#45;player))</text>
<text xml:space="preserve" text-anchor="middle" x="1363" y="-95.95" font-family="Times,serif" font-size="14.00">trans: (bj&#45;show &quot;Your wallet is empty.&quot;)</text>
</g>
<!-- [9]Blackjack[7]Betting&#45;&gt;[9]Blackjack[7]Betting[15]Wallet is empty -->
<g id="edge13" class="edge">
<title>[9]Blackjack[7]Betting&#45;&gt;[9]Blackjack[7]Betting[15]Wallet is empty</title>
<path fill="none" stroke="red" d="M1417.57,-188.69C1408.43,-177 1396.12,-161.25 1385.51,-147.67"/>
</g>
<!-- [9]Blackjack[7]Betting[5]Input -->
<g id="node9" class="node">
<title>[9]Blackjack[7]Betting[5]Input</title>
<text xml:space="preserve" text-anchor="middle" x="1676" y="-121.83" font-family="Times,serif" font-size="14.00">[Input]</text>
<text xml:space="preserve" text-anchor="middle" x="1676" y="-104.58" font-family="Times,serif" font-size="14.00">trans: place&#45;bet</text>
</g>
<!-- [9]Blackjack[7]Betting&#45;&gt;[9]Blackjack[7]Betting[5]Input -->
<g id="edge15" class="edge">
<title>[9]Blackjack[7]Betting&#45;&gt;[9]Blackjack[7]Betting[5]Input</title>
<path fill="none" stroke="red" d="M1480.16,-190C1514.69,-178.67 1561.86,-162.83 1603,-147.75 1610.42,-145.03 1618.23,-142.06 1625.86,-139.09"/>
</g>
<!-- [9]Blackjack[7]Betting[15]Wallet is empty&#45;&gt;[9]Blackjack[4]Idle -->
<g id="edge14" class="edge">
<title>[9]Blackjack[7]Betting[15]Wallet is empty&#45;&gt;[9]Blackjack[4]Idle</title>
<path fill="none" stroke="red" d="M1365.4,-147.45C1369.08,-198.46 1373.7,-302.52 1353,-331 1341.69,-346.56 1325.69,-357.95 1308.24,-366.29"/>
<polygon fill="red" stroke="red" points="1306.96,-363.03 1299.21,-370.26 1309.77,-369.44 1306.96,-363.03"/>
</g>
<!-- [7]Playing[24]Dealing a Card to Player -->
<g id="node10" class="node">
<title>[7]Playing[24]Dealing a Card to Player</title>
<path fill="white" stroke="black" d="M1190.25,-1265C1190.25,-1265 845.75,-1265 845.75,-1265 839.75,-1265 833.75,-1259 833.75,-1253 833.75,-1253 833.75,-1230.75 833.75,-1230.75 833.75,-1224.75 839.75,-1218.75 845.75,-1218.75 845.75,-1218.75 1190.25,-1218.75 1190.25,-1218.75 1196.25,-1218.75 1202.25,-1224.75 1202.25,-1230.75 1202.25,-1230.75 1202.25,-1253 1202.25,-1253 1202.25,-1259 1196.25,-1265 1190.25,-1265"/>
<text xml:space="preserve" text-anchor="middle" x="1018" y="-1247.7" font-family="Times,serif" font-size="14.00">【Dealing a Card to Player】</text>
<text xml:space="preserve" text-anchor="middle" x="1018" y="-1226.7" font-family="Times,serif" font-size="14.00">trans: (compose show&#45;player&#45;hand deal&#45;to&#45;player)</text>
</g>
<!-- [9]Blackjack[7]Betting[5]Input&#45;&gt;[7]Playing[24]Dealing a Card to Player -->
<g id="edge16" class="edge">
<title>[9]Blackjack[7]Betting[5]Input&#45;&gt;[7]Playing[24]Dealing a Card to Player</title>
<path fill="none" stroke="red" d="M1671.36,-138.9C1663.32,-178.53 1650.8,-268.52 1686,-331 1729.11,-407.52 1805.19,-365.71 1850,-441.25 1874.73,-482.95 1860,-501.39 1860,-549.88 1860,-1082.12 1860,-1082.12 1860,-1082.12 1860,-1147.53 1462.66,-1197.99 1213.88,-1223.17"/>
<polygon fill="red" stroke="red" points="1213.63,-1219.68 1204.03,-1224.16 1214.33,-1226.64 1213.63,-1219.68"/>
</g>
<!-- [7]Playing[24]Dealing a Card to Player[12]Dealing Fail -->
<g id="node11" class="node">
<title>[7]Playing[24]Dealing a Card to Player[12]Dealing Fail</title>
<text xml:space="preserve" text-anchor="middle" x="169" y="-1085.08" font-family="Times,serif" font-size="14.00">[Dealing Fail]</text>
<text xml:space="preserve" text-anchor="middle" x="169" y="-1067.83" font-family="Times,serif" font-size="14.00">when: (compose empty? bj&#45;state&#45;shoe)</text>
</g>
<!-- [7]Playing[24]Dealing a Card to Player&#45;&gt;[7]Playing[24]Dealing a Card to Player[12]Dealing Fail -->
<g id="edge17" class="edge">
<title>[7]Playing[24]Dealing a Card to Player&#45;&gt;[7]Playing[24]Dealing a Card to Player[12]Dealing Fail</title>
<path fill="none" stroke="red" d="M833.36,-1231.85C673.68,-1222.65 455.72,-1206.37 372,-1182.75 307.45,-1164.54 238.84,-1125.95 200.21,-1102.21"/>
</g>
<!-- [7]Playing[24]Dealing a Card to Player[21]Deal a Card to dealer -->
<g id="node12" class="node">
<title>[7]Playing[24]Dealing a Card to Player[21]Deal a Card to dealer</title>
<text xml:space="preserve" text-anchor="middle" x="566" y="-1165.45" font-family="Times,serif" font-size="14.00">[Deal a Card to dealer]</text>
<text xml:space="preserve" text-anchor="middle" x="566" y="-1148.2" font-family="Times,serif" font-size="14.00">when: (compose (less&#45;than? 2) player&#45;hand&#45;count)</text>
</g>
<!-- [7]Playing[24]Dealing a Card to Player&#45;&gt;[7]Playing[24]Dealing a Card to Player[21]Deal a Card to dealer -->
<g id="edge19" class="edge">
<title>[7]Playing[24]Dealing a Card to Player&#45;&gt;[7]Playing[24]Dealing a Card to Player[21]Deal a Card to dealer</title>
<path fill="none" stroke="red" d="M887.57,-1218.26C822.9,-1207.04 745.43,-1193.61 682.74,-1182.74"/>
</g>
<!-- [7]Playing[24]Dealing a Card to Player[16]Return to player -->
<g id="node13" class="node">
<title>[7]Playing[24]Dealing a Card to Player[16]Return to player</title>
<text xml:space="preserve" text-anchor="middle" x="1089" y="-1156.83" font-family="Times,serif" font-size="14.00">[Return to player]</text>
</g>
<!-- [7]Playing[24]Dealing a Card to Player&#45;&gt;[7]Playing[24]Dealing a Card to Player[16]Return to player -->
<g id="edge21" class="edge">
<title>[7]Playing[24]Dealing a Card to Player&#45;&gt;[7]Playing[24]Dealing a Card to Player[16]Return to player</title>
<path fill="none" stroke="red" d="M1038.16,-1218.63C1049.47,-1206.13 1063.36,-1190.8 1073.76,-1179.32"/>
</g>
<!-- [7]Playing[14]Dealer Misdeal -->
<g id="node14" class="node">
<title>[7]Playing[14]Dealer Misdeal</title>
<path fill="white" stroke="black" d="M253.25,-926.25C253.25,-926.25 124.75,-926.25 124.75,-926.25 118.75,-926.25 112.75,-920.25 112.75,-914.25 112.75,-914.25 112.75,-892 112.75,-892 112.75,-886 118.75,-880 124.75,-880 124.75,-880 253.25,-880 253.25,-880 259.25,-880 265.25,-886 265.25,-892 265.25,-892 265.25,-914.25 265.25,-914.25 265.25,-920.25 259.25,-926.25 253.25,-926.25"/>
<text xml:space="preserve" text-anchor="middle" x="189" y="-908.95" font-family="Times,serif" font-size="14.00">【Dealer Misdeal】</text>
<text xml:space="preserve" text-anchor="middle" x="189" y="-887.95" font-family="Times,serif" font-size="14.00">(Empty Shoe)</text>
</g>
<!-- [7]Playing[24]Dealing a Card to Player[12]Dealing Fail&#45;&gt;[7]Playing[14]Dealer Misdeal -->
<g id="edge18" class="edge">
<title>[7]Playing[24]Dealing a Card to Player[12]Dealing Fail&#45;&gt;[7]Playing[14]Dealer Misdeal</title>
<path fill="none" stroke="red" d="M83.53,-1059.88C64.81,-1051.32 47.24,-1039.19 36,-1022 21.46,-999.78 20.92,-984.11 36,-962.25 51.32,-940.04 76.32,-926.32 101.71,-917.83"/>
<polygon fill="red" stroke="red" points="102.6,-921.22 111.14,-914.95 100.55,-914.52 102.6,-921.22"/>
</g>
<!-- [7]Playing[24]Dealing a Card to Dealer -->
<g id="node18" class="node">
<title>[7]Playing[24]Dealing a Card to Dealer</title>
<path fill="white" stroke="black" d="M688.25,-1104.25C688.25,-1104.25 343.75,-1104.25 343.75,-1104.25 337.75,-1104.25 331.75,-1098.25 331.75,-1092.25 331.75,-1092.25 331.75,-1070 331.75,-1070 331.75,-1064 337.75,-1058 343.75,-1058 343.75,-1058 688.25,-1058 688.25,-1058 694.25,-1058 700.25,-1064 700.25,-1070 700.25,-1070 700.25,-1092.25 700.25,-1092.25 700.25,-1098.25 694.25,-1104.25 688.25,-1104.25"/>
<text xml:space="preserve" text-anchor="middle" x="516" y="-1086.95" font-family="Times,serif" font-size="14.00">【Dealing a Card to Dealer】</text>
<text xml:space="preserve" text-anchor="middle" x="516" y="-1065.95" font-family="Times,serif" font-size="14.00">trans: (compose show&#45;dealer&#45;hand deal&#45;to&#45;dealer)</text>
</g>
<!-- [7]Playing[24]Dealing a Card to Player[21]Deal a Card to dealer&#45;&gt;[7]Playing[24]Dealing a Card to Dealer -->
<g id="edge20" class="edge">
<title>[7]Playing[24]Dealing a Card to Player[21]Deal a Card to dealer&#45;&gt;[7]Playing[24]Dealing a Card to Dealer</title>
<path fill="none" stroke="red" d="M553.12,-1140.32C548.08,-1132.41 542.16,-1123.14 536.56,-1114.35"/>
<polygon fill="red" stroke="red" points="539.56,-1112.55 531.23,-1106 533.66,-1116.32 539.56,-1112.55"/>
</g>
<!-- [7]Playing[21]Hit or Stand (Player) -->
<g id="node37" class="node">
<title>[7]Playing[21]Hit or Stand (Player)</title>
<path fill="white" stroke="black" d="M1274.88,-1099.12C1274.88,-1099.12 1105.12,-1099.12 1105.12,-1099.12 1099.12,-1099.12 1093.12,-1093.12 1093.12,-1087.12 1093.12,-1087.12 1093.12,-1075.12 1093.12,-1075.12 1093.12,-1069.12 1099.12,-1063.12 1105.12,-1063.12 1105.12,-1063.12 1274.88,-1063.12 1274.88,-1063.12 1280.88,-1063.12 1286.88,-1069.12 1286.88,-1075.12 1286.88,-1075.12 1286.88,-1087.12 1286.88,-1087.12 1286.88,-1093.12 1280.88,-1099.12 1274.88,-1099.12"/>
<text xml:space="preserve" text-anchor="middle" x="1190" y="-1078.33" font-family="Times,serif" font-size="14.00">【Hit or Stand (Player)】</text>
</g>
<!-- [7]Playing[24]Dealing a Card to Player[16]Return to player&#45;&gt;[7]Playing[21]Hit or Stand (Player) -->
<g id="edge22" class="edge">
<title>[7]Playing[24]Dealing a Card to Player[16]Return to player&#45;&gt;[7]Playing[21]Hit or Stand (Player)</title>
<path fill="none" stroke="red" d="M1110.42,-1143.88C1124.46,-1132.99 1143.04,-1118.56 1158.72,-1106.4"/>
<polygon fill="red" stroke="red" points="1160.61,-1109.36 1166.37,-1100.47 1156.32,-1103.83 1160.61,-1109.36"/>
</g>
<!-- [7]Playing[14]Dealer Misdeal[11]Player win! -->
<g id="node15" class="node">
<title>[7]Playing[14]Dealer Misdeal[11]Player win!</title>
<text xml:space="preserve" text-anchor="middle" x="257" y="-713.7" font-family="Times,serif" font-size="14.00">[Player win!]</text>
</g>
<!-- [7]Playing[14]Dealer Misdeal&#45;&gt;[7]Playing[14]Dealer Misdeal[11]Player win! -->
<g id="edge23" class="edge">
<title>[7]Playing[14]Dealer Misdeal&#45;&gt;[7]Playing[14]Dealer Misdeal[11]Player win!</title>
<path fill="none" stroke="red" d="M197.34,-879.72C211.13,-842.64 238.41,-769.35 250.71,-736.27"/>
</g>
<!-- [7]Playing[10]Player Win -->
<g id="node16" class="node">
<title>[7]Playing[10]Player Win</title>
<path fill="white" stroke="black" d="M522.25,-574C522.25,-574 411.75,-574 411.75,-574 405.75,-574 399.75,-568 399.75,-562 399.75,-562 399.75,-539.75 399.75,-539.75 399.75,-533.75 405.75,-527.75 411.75,-527.75 411.75,-527.75 522.25,-527.75 522.25,-527.75 528.25,-527.75 534.25,-533.75 534.25,-539.75 534.25,-539.75 534.25,-562 534.25,-562 534.25,-568 528.25,-574 522.25,-574"/>
<text xml:space="preserve" text-anchor="middle" x="467" y="-556.7" font-family="Times,serif" font-size="14.00">【Player Win】</text>
<text xml:space="preserve" text-anchor="middle" x="467" y="-535.7" font-family="Times,serif" font-size="14.00">trans: result&#45;win</text>
</g>
<!-- [7]Playing[14]Dealer Misdeal[11]Player win!&#45;&gt;[7]Playing[10]Player Win -->
<g id="edge24" class="edge">
<title>[7]Playing[14]Dealer Misdeal[11]Player win!&#45;&gt;[7]Playing[10]Player Win</title>
<path fill="none" stroke="red" d="M278.19,-700.62C304.93,-679.48 352.35,-642.01 393,-610 404.75,-600.75 417.55,-590.68 429.16,-581.57"/>
<polygon fill="red" stroke="red" points="431.28,-584.36 436.98,-575.43 426.95,-578.85 431.28,-584.36"/>
</g>
<!-- [7]Playing[10]Player Win[6]Return -->
<g id="node17" class="node">
<title>[7]Playing[10]Player Win[6]Return</title>
<text xml:space="preserve" text-anchor="middle" x="653" y="-474.45" font-family="Times,serif" font-size="14.00">[Return]</text>
<text xml:space="preserve" text-anchor="middle" x="653" y="-457.2" font-family="Times,serif" font-size="14.00">trans: identity</text>
</g>
<!-- [7]Playing[10]Player Win&#45;&gt;[7]Playing[10]Player Win[6]Return -->
<g id="edge25" class="edge">
<title>[7]Playing[10]Player Win&#45;&gt;[7]Playing[10]Player Win[6]Return</title>
<path fill="none" stroke="red" d="M520.3,-527.42C547.03,-516.15 579.15,-502.62 605.09,-491.69"/>
</g>
<!-- [7]Playing[10]Player Win[6]Return&#45;&gt;[9]Blackjack[4]Idle -->
<g id="edge26" class="edge">
<title>[7]Playing[10]Player Win[6]Return&#45;&gt;[9]Blackjack[4]Idle</title>
<path fill="none" stroke="red" d="M711.83,-460.51C748.88,-454.88 797.72,-447.53 841,-441.25 924.13,-429.19 1018.19,-416.04 1089.03,-406.23"/>
<polygon fill="red" stroke="red" points="1089.27,-409.73 1098.69,-404.9 1088.31,-402.8 1089.27,-409.73"/>
</g>
<!-- [7]Playing[24]Dealing a Card to Dealer[12]Dealing Fail -->
<g id="node19" class="node">
<title>[7]Playing[24]Dealing a Card to Dealer[12]Dealing Fail</title>
<text xml:space="preserve" text-anchor="middle" x="189" y="-996.08" font-family="Times,serif" font-size="14.00">[Dealing Fail]</text>
<text xml:space="preserve" text-anchor="middle" x="189" y="-978.83" font-family="Times,serif" font-size="14.00">when: (compose empty? bj&#45;state&#45;shoe)</text>
</g>
<!-- [7]Playing[24]Dealing a Card to Dealer&#45;&gt;[7]Playing[24]Dealing a Card to Dealer[12]Dealing Fail -->
<g id="edge27" class="edge">
<title>[7]Playing[24]Dealing a Card to Dealer&#45;&gt;[7]Playing[24]Dealing a Card to Dealer[12]Dealing Fail</title>
<path fill="none" stroke="red" d="M431.36,-1057.61C379.89,-1043.91 314.71,-1026.57 264.91,-1013.32"/>
</g>
<!-- [7]Playing[24]Dealing a Card to Dealer[21]Deal a Card to player -->
<g id="node20" class="node">
<title>[7]Playing[24]Dealing a Card to Dealer[21]Deal a Card to player</title>
<text xml:space="preserve" text-anchor="middle" x="719" y="-996.08" font-family="Times,serif" font-size="14.00">[Deal a Card to player]</text>
<text xml:space="preserve" text-anchor="middle" x="719" y="-978.83" font-family="Times,serif" font-size="14.00">when: (compose (less&#45;than? 2) dealer&#45;hand&#45;count)</text>
</g>
<!-- [7]Playing[24]Dealing a Card to Dealer&#45;&gt;[7]Playing[24]Dealing a Card to Dealer[21]Deal a Card to player -->
<g id="edge29" class="edge">
<title>[7]Playing[24]Dealing a Card to Dealer&#45;&gt;[7]Playing[24]Dealing a Card to Dealer[21]Deal a Card to player</title>
<path fill="none" stroke="red" d="M568.54,-1057.61C600.5,-1043.91 640.96,-1026.57 671.88,-1013.32"/>
</g>
<!-- [7]Playing[24]Dealing a Card to Dealer[16]Return to dealer -->
<g id="node21" class="node">
<title>[7]Playing[24]Dealing a Card to Dealer[16]Return to dealer</title>
<text xml:space="preserve" text-anchor="middle" x="444" y="-987.45" font-family="Times,serif" font-size="14.00">[Return to dealer]</text>
</g>
<!-- [7]Playing[24]Dealing a Card to Dealer&#45;&gt;[7]Playing[24]Dealing a Card to Dealer[16]Return to dealer -->
<g id="edge31" class="edge">
<title>[7]Playing[24]Dealing a Card to Dealer&#45;&gt;[7]Playing[24]Dealing a Card to Dealer[16]Return to dealer</title>
<path fill="none" stroke="red" d="M497.46,-1057.72C485.13,-1042.82 469.18,-1023.56 457.93,-1009.96"/>
</g>
<!-- [7]Playing[24]Dealing a Card to Dealer[12]Dealing Fail&#45;&gt;[7]Playing[14]Dealer Misdeal -->
<g id="edge28" class="edge">
<title>[7]Playing[24]Dealing a Card to Dealer[12]Dealing Fail&#45;&gt;[7]Playing[14]Dealer Misdeal</title>
<path fill="none" stroke="red" d="M189,-970.95C189,-961.11 189,-949.02 189,-937.83"/>
<polygon fill="red" stroke="red" points="192.5,-938.16 189,-928.16 185.5,-938.16 192.5,-938.16"/>
</g>
<!-- [7]Playing[24]Dealing a Card to Dealer[21]Deal a Card to player&#45;&gt;[7]Playing[24]Dealing a Card to Player -->
<g id="edge30" class="edge">
<title>[7]Playing[24]Dealing a Card to Dealer[21]Deal a Card to player&#45;&gt;[7]Playing[24]Dealing a Card to Player</title>
<path fill="none" stroke="red" d="M743.26,-1013.23C795.88,-1056.83 920.7,-1160.25 982.32,-1211.31"/>
<polygon fill="red" stroke="red" points="979.84,-1213.8 989.77,-1217.49 984.31,-1208.41 979.84,-1213.8"/>
</g>
<!-- [7]Playing[21]Hit or Stand (Dealer) -->
<g id="node22" class="node">
<title>[7]Playing[21]Hit or Stand (Dealer)</title>
<path fill="white" stroke="black" d="M790.62,-921.12C790.62,-921.12 619.38,-921.12 619.38,-921.12 613.38,-921.12 607.38,-915.12 607.38,-909.12 607.38,-909.12 607.38,-897.12 607.38,-897.12 607.38,-891.12 613.38,-885.12 619.38,-885.12 619.38,-885.12 790.62,-885.12 790.62,-885.12 796.62,-885.12 802.62,-891.12 802.62,-897.12 802.62,-897.12 802.62,-909.12 802.62,-909.12 802.62,-915.12 796.62,-921.12 790.62,-921.12"/>
<text xml:space="preserve" text-anchor="middle" x="705" y="-900.33" font-family="Times,serif" font-size="14.00">【Hit or Stand (Dealer)】</text>
</g>
<!-- [7]Playing[24]Dealing a Card to Dealer[16]Return to dealer&#45;&gt;[7]Playing[21]Hit or Stand (Dealer) -->
<g id="edge32" class="edge">
<title>[7]Playing[24]Dealing a Card to Dealer[16]Return to dealer&#45;&gt;[7]Playing[21]Hit or Stand (Dealer)</title>
<path fill="none" stroke="red" d="M490.6,-974.24C501.84,-970.24 513.83,-966.04 525,-962.25 562.6,-949.48 604.83,-935.81 638.94,-924.93"/>
<polygon fill="red" stroke="red" points="639.8,-928.33 648.27,-921.96 637.68,-921.66 639.8,-928.33"/>
</g>
<!-- [7]Playing[21]Hit or Stand (Dealer)[3]Hit -->
<g id="node23" class="node">
<title>[7]Playing[21]Hit or Stand (Dealer)[3]Hit</title>
<text xml:space="preserve" text-anchor="middle" x="353" y="-818.08" font-family="Times,serif" font-size="14.00">[Hit]</text>
<text xml:space="preserve" text-anchor="middle" x="353" y="-800.83" font-family="Times,serif" font-size="14.00">when: dealer&#45;hit?</text>
</g>
<!-- [7]Playing[21]Hit or Stand (Dealer)&#45;&gt;[7]Playing[21]Hit or Stand (Dealer)[3]Hit -->
<g id="edge33" class="edge">
<title>[7]Playing[21]Hit or Stand (Dealer)&#45;&gt;[7]Playing[21]Hit or Stand (Dealer)[3]Hit</title>
<path fill="none" stroke="red" d="M606.89,-884.7C554.54,-874.54 489.28,-860.48 432,-844 423.16,-841.46 413.88,-838.42 404.93,-835.28"/>
</g>
<!-- [7]Playing[21]Hit or Stand (Dealer)[5]Stand -->
<g id="node24" class="node">
<title>[7]Playing[21]Hit or Stand (Dealer)[5]Stand</title>
<text xml:space="preserve" text-anchor="middle" x="833" y="-818.08" font-family="Times,serif" font-size="14.00">[Stand]</text>
<text xml:space="preserve" text-anchor="middle" x="833" y="-800.83" font-family="Times,serif" font-size="14.00">when: (negate dealer&#45;hit?)</text>
</g>
<!-- [7]Playing[21]Hit or Stand (Dealer)&#45;&gt;[7]Playing[21]Hit or Stand (Dealer)[5]Stand -->
<g id="edge35" class="edge">
<title>[7]Playing[21]Hit or Stand (Dealer)&#45;&gt;[7]Playing[21]Hit or Stand (Dealer)[5]Stand</title>
<path fill="none" stroke="red" d="M730.6,-884.73C751.61,-870.45 781.38,-850.21 803.41,-835.23"/>
</g>
<!-- [7]Playing[21]Hit or Stand (Dealer)[4]Bust -->
<g id="node25" class="node">
<title>[7]Playing[21]Hit or Stand (Dealer)[4]Bust</title>
<text xml:space="preserve" text-anchor="middle" x="577" y="-826.7" font-family="Times,serif" font-size="14.00">[Bust]</text>
<text xml:space="preserve" text-anchor="middle" x="577" y="-809.45" font-family="Times,serif" font-size="14.00">when: (compose bust? dealer&#45;score)</text>
<text xml:space="preserve" text-anchor="middle" x="577" y="-792.2" font-family="Times,serif" font-size="14.00">trans: (bj&#45;show &quot;Bust!&quot;)</text>
</g>
<!-- [7]Playing[21]Hit or Stand (Dealer)&#45;&gt;[7]Playing[21]Hit or Stand (Dealer)[4]Bust -->
<g id="edge37" class="edge">
<title>[7]Playing[21]Hit or Stand (Dealer)&#45;&gt;[7]Playing[21]Hit or Stand (Dealer)[4]Bust</title>
<path fill="none" stroke="red" d="M679.4,-884.73C662.26,-873.08 639.28,-857.46 619.43,-843.97"/>
</g>
<!-- [7]Playing[21]Hit or Stand (Dealer)[3]Hit&#45;&gt;[7]Playing[24]Dealing a Card to Dealer -->
<g id="edge34" class="edge">
<title>[7]Playing[21]Hit or Stand (Dealer)[3]Hit&#45;&gt;[7]Playing[24]Dealing a Card to Dealer</title>
<path fill="none" stroke="red" d="M351.27,-835.28C347.74,-881.35 341.71,-992.69 363,-1022 372.2,-1034.67 384.54,-1044.58 398.22,-1052.34"/>
<polygon fill="red" stroke="red" points="396.57,-1055.42 407.06,-1056.91 399.79,-1049.2 396.57,-1055.42"/>
</g>
<!-- [7]Playing[9]Judgement -->
<g id="node26" class="node">
<title>[7]Playing[9]Judgement</title>
<path fill="white" stroke="black" d="M881.88,-736.38C881.88,-736.38 784.12,-736.38 784.12,-736.38 778.12,-736.38 772.12,-730.38 772.12,-724.38 772.12,-724.38 772.12,-712.38 772.12,-712.38 772.12,-706.38 778.12,-700.38 784.12,-700.38 784.12,-700.38 881.88,-700.38 881.88,-700.38 887.88,-700.38 893.88,-706.38 893.88,-712.38 893.88,-712.38 893.88,-724.38 893.88,-724.38 893.88,-730.38 887.88,-736.38 881.88,-736.38"/>
<text xml:space="preserve" text-anchor="middle" x="833" y="-715.58" font-family="Times,serif" font-size="14.00">【Judgement】</text>
</g>
<!-- [7]Playing[21]Hit or Stand (Dealer)[5]Stand&#45;&gt;[7]Playing[9]Judgement -->
<g id="edge36" class="edge">
<title>[7]Playing[21]Hit or Stand (Dealer)[5]Stand&#45;&gt;[7]Playing[9]Judgement</title>
<path fill="none" stroke="red" d="M833,-793.24C833,-780.14 833,-762.77 833,-748.17"/>
<polygon fill="red" stroke="red" points="836.5,-748.22 833,-738.22 829.5,-748.22 836.5,-748.22"/>
</g>
<!-- [7]Playing[21]Hit or Stand (Dealer)[4]Bust&#45;&gt;[7]Playing[10]Player Win -->
<g id="edge38" class="edge">
<title>[7]Playing[21]Hit or Stand (Dealer)[4]Bust&#45;&gt;[7]Playing[10]Player Win</title>
<path fill="none" stroke="red" d="M530,-784.5C489.11,-756.58 432.66,-709.97 408,-652.5 400.55,-635.14 400.71,-627.42 408,-610 412.29,-599.76 419.35,-590.41 427.13,-582.35"/>
<polygon fill="red" stroke="red" points="429.51,-584.92 434.31,-575.47 424.67,-579.86 429.51,-584.92"/>
</g>
<!-- [7]Playing[9]Judgement[14]Blackjack Win! -->
<g id="node27" class="node">
<title>[7]Playing[9]Judgement[14]Blackjack Win!</title>
<text xml:space="preserve" text-anchor="middle" x="1060" y="-635.2" font-family="Times,serif" font-size="14.00">[Blackjack Win!]</text>
<text xml:space="preserve" text-anchor="middle" x="1060" y="-617.95" font-family="Times,serif" font-size="14.00">when: (compose bj&#45;win? bj&#45;judge)</text>
</g>
<!-- [7]Playing[9]Judgement&#45;&gt;[7]Playing[9]Judgement[14]Blackjack Win! -->
<g id="edge39" class="edge">
<title>[7]Playing[9]Judgement&#45;&gt;[7]Playing[9]Judgement[14]Blackjack Win!</title>
<path fill="none" stroke="red" d="M879.48,-699.94C916.32,-686.13 967.83,-666.81 1006.41,-652.35"/>
</g>
<!-- [7]Playing[9]Judgement[11]Player win! -->
<g id="node28" class="node">
<title>[7]Playing[9]Judgement[11]Player win!</title>
<text xml:space="preserve" text-anchor="middle" x="535" y="-635.2" font-family="Times,serif" font-size="14.00">[Player win!]</text>
<text xml:space="preserve" text-anchor="middle" x="535" y="-617.95" font-family="Times,serif" font-size="14.00">when: (compose win? bj&#45;judge)</text>
</g>
<!-- [7]Playing[9]Judgement&#45;&gt;[7]Playing[9]Judgement[11]Player win! -->
<g id="edge41" class="edge">
<title>[7]Playing[9]Judgement&#45;&gt;[7]Playing[9]Judgement[11]Player win!</title>
<path fill="none" stroke="red" d="M771.98,-699.94C723.7,-686.15 656.23,-666.88 605.62,-652.42"/>
</g>
<!-- [7]Playing[9]Judgement[5]Push! -->
<g id="node29" class="node">
<title>[7]Playing[9]Judgement[5]Push!</title>
<text xml:space="preserve" text-anchor="middle" x="793" y="-635.2" font-family="Times,serif" font-size="14.00">[Push!]</text>
<text xml:space="preserve" text-anchor="middle" x="793" y="-617.95" font-family="Times,serif" font-size="14.00">when: (compose push? bj&#45;judge)</text>
</g>
<!-- [7]Playing[9]Judgement&#45;&gt;[7]Playing[9]Judgement[5]Push! -->
<g id="edge43" class="edge">
<title>[7]Playing[9]Judgement&#45;&gt;[7]Playing[9]Judgement[5]Push!</title>
<path fill="none" stroke="red" d="M824.91,-700.15C818.42,-686.35 809.31,-666.97 802.49,-652.44"/>
</g>
<!-- [7]Playing[9]Judgement[11]Dealer Win! -->
<g id="node30" class="node">
<title>[7]Playing[9]Judgement[11]Dealer Win!</title>
<text xml:space="preserve" text-anchor="middle" x="1324" y="-635.2" font-family="Times,serif" font-size="14.00">[Dealer Win!]</text>
<text xml:space="preserve" text-anchor="middle" x="1324" y="-617.95" font-family="Times,serif" font-size="14.00">when: (compose lose? bj&#45;judge)</text>
</g>
<!-- [7]Playing[9]Judgement&#45;&gt;[7]Playing[9]Judgement[11]Dealer Win! -->
<g id="edge45" class="edge">
<title>[7]Playing[9]Judgement&#45;&gt;[7]Playing[9]Judgement[11]Dealer Win!</title>
<path fill="none" stroke="red" d="M894.19,-706.77C972.34,-693.22 1109.21,-669.49 1207.52,-652.44"/>
</g>
<!-- [7]Playing[13]Blackjack Win -->
<g id="node31" class="node">
<title>[7]Playing[13]Blackjack Win</title>
<path fill="white" stroke="black" d="M1175.25,-574C1175.25,-574 1046.75,-574 1046.75,-574 1040.75,-574 1034.75,-568 1034.75,-562 1034.75,-562 1034.75,-539.75 1034.75,-539.75 1034.75,-533.75 1040.75,-527.75 1046.75,-527.75 1046.75,-527.75 1175.25,-527.75 1175.25,-527.75 1181.25,-527.75 1187.25,-533.75 1187.25,-539.75 1187.25,-539.75 1187.25,-562 1187.25,-562 1187.25,-568 1181.25,-574 1175.25,-574"/>
<text xml:space="preserve" text-anchor="middle" x="1111" y="-556.7" font-family="Times,serif" font-size="14.00">【Blackjack Win】</text>
<text xml:space="preserve" text-anchor="middle" x="1111" y="-535.7" font-family="Times,serif" font-size="14.00">trans: result&#45;bj&#45;win</text>
</g>
<!-- [7]Playing[9]Judgement[14]Blackjack Win!&#45;&gt;[7]Playing[13]Blackjack Win -->
<g id="edge40" class="edge">
<title>[7]Playing[9]Judgement[14]Blackjack Win!&#45;&gt;[7]Playing[13]Blackjack Win</title>
<path fill="none" stroke="red" d="M1073.13,-610.07C1078.28,-602.16 1084.31,-592.89 1090.03,-584.1"/>
<polygon fill="red" stroke="red" points="1092.95,-586.04 1095.47,-575.75 1087.08,-582.22 1092.95,-586.04"/>
</g>
<!-- [7]Playing[9]Judgement[11]Player win!&#45;&gt;[7]Playing[10]Player Win -->
<g id="edge42" class="edge">
<title>[7]Playing[9]Judgement[11]Player win!&#45;&gt;[7]Playing[10]Player Win</title>
<path fill="none" stroke="red" d="M517.49,-610.07C510.33,-601.82 501.89,-592.09 493.98,-582.97"/>
<polygon fill="red" stroke="red" points="496.8,-580.88 487.6,-575.62 491.51,-585.47 496.8,-580.88"/>
</g>
<!-- [7]Playing[4]Push -->
<g id="node33" class="node">
<title>[7]Playing[4]Push</title>
<path fill="white" stroke="black" d="M903.75,-574C903.75,-574 784.25,-574 784.25,-574 778.25,-574 772.25,-568 772.25,-562 772.25,-562 772.25,-539.75 772.25,-539.75 772.25,-533.75 778.25,-527.75 784.25,-527.75 784.25,-527.75 903.75,-527.75 903.75,-527.75 909.75,-527.75 915.75,-533.75 915.75,-539.75 915.75,-539.75 915.75,-562 915.75,-562 915.75,-568 909.75,-574 903.75,-574"/>
<text xml:space="preserve" text-anchor="middle" x="844" y="-556.7" font-family="Times,serif" font-size="14.00">【Push】</text>
<text xml:space="preserve" text-anchor="middle" x="844" y="-535.7" font-family="Times,serif" font-size="14.00">trans: result&#45;push</text>
</g>
<!-- [7]Playing[9]Judgement[5]Push!&#45;&gt;[7]Playing[4]Push -->
<g id="edge44" class="edge">
<title>[7]Playing[9]Judgement[5]Push!&#45;&gt;[7]Playing[4]Push</title>
<path fill="none" stroke="red" d="M806.13,-610.07C811.28,-602.16 817.31,-592.89 823.03,-584.1"/>
<polygon fill="red" stroke="red" points="825.95,-586.04 828.47,-575.75 820.08,-582.22 825.95,-586.04"/>
</g>
<!-- [7]Playing[10]Dealer Win -->
<g id="node35" class="node">
<title>[7]Playing[10]Dealer Win</title>
<path fill="white" stroke="black" d="M1380.75,-574C1380.75,-574 1267.25,-574 1267.25,-574 1261.25,-574 1255.25,-568 1255.25,-562 1255.25,-562 1255.25,-539.75 1255.25,-539.75 1255.25,-533.75 1261.25,-527.75 1267.25,-527.75 1267.25,-527.75 1380.75,-527.75 1380.75,-527.75 1386.75,-527.75 1392.75,-533.75 1392.75,-539.75 1392.75,-539.75 1392.75,-562 1392.75,-562 1392.75,-568 1386.75,-574 1380.75,-574"/>
<text xml:space="preserve" text-anchor="middle" x="1324" y="-556.7" font-family="Times,serif" font-size="14.00">【Dealer Win】</text>
<text xml:space="preserve" text-anchor="middle" x="1324" y="-535.7" font-family="Times,serif" font-size="14.00">trans: result&#45;lose</text>
</g>
<!-- [7]Playing[9]Judgement[11]Dealer Win!&#45;&gt;[7]Playing[10]Dealer Win -->
<g id="edge46" class="edge">
<title>[7]Playing[9]Judgement[11]Dealer Win!&#45;&gt;[7]Playing[10]Dealer Win</title>
<path fill="none" stroke="red" d="M1324,-610.07C1324,-602.67 1324,-594.08 1324,-585.8"/>
<polygon fill="red" stroke="red" points="1327.5,-585.99 1324,-575.99 1320.5,-585.99 1327.5,-585.99"/>
</g>
<!-- [7]Playing[13]Blackjack Win[6]Return -->
<g id="node32" class="node">
<title>[7]Playing[13]Blackjack Win[6]Return</title>
<text xml:space="preserve" text-anchor="middle" x="1130" y="-474.45" font-family="Times,serif" font-size="14.00">[Return]</text>
<text xml:space="preserve" text-anchor="middle" x="1130" y="-457.2" font-family="Times,serif" font-size="14.00">trans: identity</text>
</g>
<!-- [7]Playing[13]Blackjack Win&#45;&gt;[7]Playing[13]Blackjack Win[6]Return -->
<g id="edge47" class="edge">
<title>[7]Playing[13]Blackjack Win&#45;&gt;[7]Playing[13]Blackjack Win[6]Return</title>
<path fill="none" stroke="red" d="M1116.39,-527.63C1119.14,-516.31 1122.44,-502.66 1125.11,-491.66"/>
</g>
<!-- [7]Playing[13]Blackjack Win[6]Return&#45;&gt;[9]Blackjack[4]Idle -->
<g id="edge48" class="edge">
<title>[7]Playing[13]Blackjack Win[6]Return&#45;&gt;[9]Blackjack[4]Idle</title>
<path fill="none" stroke="red" d="M1147.77,-449.32C1155.03,-441.07 1163.6,-431.34 1171.63,-422.22"/>
<polygon fill="red" stroke="red" points="1174.12,-424.68 1178.1,-414.86 1168.87,-420.06 1174.12,-424.68"/>
</g>
<!-- [7]Playing[4]Push[6]Return -->
<g id="node34" class="node">
<title>[7]Playing[4]Push[6]Return</title>
<text xml:space="preserve" text-anchor="middle" x="909" y="-474.45" font-family="Times,serif" font-size="14.00">[Return]</text>
<text xml:space="preserve" text-anchor="middle" x="909" y="-457.2" font-family="Times,serif" font-size="14.00">trans: identity</text>
</g>
<!-- [7]Playing[4]Push&#45;&gt;[7]Playing[4]Push[6]Return -->
<g id="edge49" class="edge">
<title>[7]Playing[4]Push&#45;&gt;[7]Playing[4]Push[6]Return</title>
<path fill="none" stroke="red" d="M862.45,-527.63C871.84,-516.31 883.15,-502.66 892.28,-491.66"/>
</g>
<!-- [7]Playing[4]Push[6]Return&#45;&gt;[9]Blackjack[4]Idle -->
<g id="edge50" class="edge">
<title>[7]Playing[4]Push[6]Return&#45;&gt;[9]Blackjack[4]Idle</title>
<path fill="none" stroke="red" d="M967.69,-453.64C1006.9,-443.04 1059.37,-428.86 1104.42,-416.69"/>
<polygon fill="red" stroke="red" points="1105.2,-420.1 1113.94,-414.11 1103.37,-413.34 1105.2,-420.1"/>
</g>
<!-- [7]Playing[10]Dealer Win[6]Return -->
<g id="node36" class="node">
<title>[7]Playing[10]Dealer Win[6]Return</title>
<text xml:space="preserve" text-anchor="middle" x="1286" y="-474.45" font-family="Times,serif" font-size="14.00">[Return]</text>
<text xml:space="preserve" text-anchor="middle" x="1286" y="-457.2" font-family="Times,serif" font-size="14.00">trans: identity</text>
</g>
<!-- [7]Playing[10]Dealer Win&#45;&gt;[7]Playing[10]Dealer Win[6]Return -->
<g id="edge51" class="edge">
<title>[7]Playing[10]Dealer Win&#45;&gt;[7]Playing[10]Dealer Win[6]Return</title>
<path fill="none" stroke="red" d="M1313.21,-527.63C1307.73,-516.31 1301.11,-502.66 1295.78,-491.66"/>
</g>
<!-- [7]Playing[10]Dealer Win[6]Return&#45;&gt;[9]Blackjack[4]Idle -->
<g id="edge52" class="edge">
<title>[7]Playing[10]Dealer Win[6]Return&#45;&gt;[9]Blackjack[4]Idle</title>
<path fill="none" stroke="red" d="M1263.6,-449.32C1254.16,-440.81 1242.97,-430.73 1232.58,-421.37"/>
<polygon fill="red" stroke="red" points="1234.99,-418.83 1225.22,-414.74 1230.3,-424.04 1234.99,-418.83"/>
</g>
<!-- [7]Playing[21]Hit or Stand (Player)[3]Hit -->
<g id="node38" class="node">
<title>[7]Playing[21]Hit or Stand (Player)[3]Hit</title>
<text xml:space="preserve" text-anchor="middle" x="1436" y="-987.45" font-family="Times,serif" font-size="14.00">[Hit]</text>
</g>
<!-- [7]Playing[21]Hit or Stand (Player)&#45;&gt;[7]Playing[21]Hit or Stand (Player)[3]Hit -->
<g id="edge53" class="edge">
<title>[7]Playing[21]Hit or Stand (Player)&#45;&gt;[7]Playing[21]Hit or Stand (Player)[3]Hit</title>
<path fill="none" stroke="blue" d="M1275.87,-1062.63C1313.49,-1053.25 1357.52,-1039.87 1395,-1022 1401.92,-1018.7 1408.92,-1014.26 1415.14,-1009.85"/>
</g>
<!-- [7]Playing[21]Hit or Stand (Player)[5]Stand -->
<g id="node39" class="node">
<title>[7]Playing[21]Hit or Stand (Player)[5]Stand</title>
<text xml:space="preserve" text-anchor="middle" x="956" y="-987.45" font-family="Times,serif" font-size="14.00">[Stand]</text>
</g>
<!-- [7]Playing[21]Hit or Stand (Player)&#45;&gt;[7]Playing[21]Hit or Stand (Player)[5]Stand -->
<g id="edge55" class="edge">
<title>[7]Playing[21]Hit or Stand (Player)&#45;&gt;[7]Playing[21]Hit or Stand (Player)[5]Stand</title>
<path fill="none" stroke="blue" d="M1116.01,-1062.74C1080.09,-1052.99 1036.85,-1039.29 1000,-1022 992.89,-1018.66 985.59,-1014.31 979.03,-1010"/>
</g>
<!-- [7]Playing[21]Hit or Stand (Player)[4]Bust -->
<g id="node40" class="node">
<title>[7]Playing[21]Hit or Stand (Player)[4]Bust</title>
<text xml:space="preserve" text-anchor="middle" x="1327" y="-730.95" font-family="Times,serif" font-size="14.00">[Bust]</text>
<text xml:space="preserve" text-anchor="middle" x="1327" y="-713.7" font-family="Times,serif" font-size="14.00">when: (compose bust? player&#45;score)</text>
<text xml:space="preserve" text-anchor="middle" x="1327" y="-696.45" font-family="Times,serif" font-size="14.00">trans: (bj&#45;show &quot;Bust!&quot;)</text>
</g>
<!-- [7]Playing[21]Hit or Stand (Player)&#45;&gt;[7]Playing[21]Hit or Stand (Player)[4]Bust -->
<g id="edge57" class="edge">
<title>[7]Playing[21]Hit or Stand (Player)&#45;&gt;[7]Playing[21]Hit or Stand (Player)[4]Bust</title>
<path fill="none" stroke="red" d="M1261.21,-1062.69C1311.97,-1049.54 1372.52,-1032.1 1380,-1022 1412.12,-978.58 1360.26,-814.5 1337.19,-747.81"/>
</g>
<!-- [7]Playing[21]Hit or Stand (Player)[9]Blackjack -->
<g id="node41" class="node">
<title>[7]Playing[21]Hit or Stand (Player)[9]Blackjack</title>
<text xml:space="preserve" text-anchor="middle" x="1190" y="-1004.7" font-family="Times,serif" font-size="14.00">[Blackjack]</text>
<text xml:space="preserve" text-anchor="middle" x="1190" y="-987.45" font-family="Times,serif" font-size="14.00">when: (compose natural&#45;blackjack? player&#45;score)</text>
<text xml:space="preserve" text-anchor="middle" x="1190" y="-970.2" font-family="Times,serif" font-size="14.00">trans: (bj&#45;show &quot;Blackjack!&quot;)</text>
</g>
<!-- [7]Playing[21]Hit or Stand (Player)&#45;&gt;[7]Playing[21]Hit or Stand (Player)[9]Blackjack -->
<g id="edge59" class="edge">
<title>[7]Playing[21]Hit or Stand (Player)&#45;&gt;[7]Playing[21]Hit or Stand (Player)[9]Blackjack</title>
<path fill="none" stroke="red" d="M1190,-1062.94C1190,-1051.25 1190,-1035.5 1190,-1021.92"/>
</g>
<!-- [7]Playing[21]Hit or Stand (Player)[3]Hit&#45;&gt;[7]Playing[24]Dealing a Card to Player -->
<g id="edge54" class="edge">
<title>[7]Playing[21]Hit or Stand (Player)[3]Hit&#45;&gt;[7]Playing[24]Dealing a Card to Player</title>
<path fill="none" stroke="blue" d="M1417.03,-1009.94C1375.21,-1046.24 1270.81,-1132.65 1170,-1182.75 1146.53,-1194.41 1120.11,-1205.26 1095.96,-1214.34"/>
<polygon fill="blue" stroke="blue" points="1094.98,-1210.97 1086.82,-1217.73 1097.41,-1217.54 1094.98,-1210.97"/>
</g>
<!-- [7]Playing[21]Hit or Stand (Player)[5]Stand&#45;&gt;[7]Playing[21]Hit or Stand (Dealer) -->
<g id="edge56" class="edge">
<title>[7]Playing[21]Hit or Stand (Player)[5]Stand&#45;&gt;[7]Playing[21]Hit or Stand (Dealer)</title>
<path fill="none" stroke="blue" d="M934.03,-974.42C927.51,-970.01 920.19,-965.56 913,-962.25 878.05,-946.14 837.69,-933.61 801.88,-924.37"/>
<polygon fill="blue" stroke="blue" points="802.94,-921.03 792.39,-921.98 801.23,-927.81 802.94,-921.03"/>
</g>
<!-- [7]Playing[21]Hit or Stand (Player)[4]Bust&#45;&gt;[7]Playing[10]Dealer Win -->
<g id="edge58" class="edge">
<title>[7]Playing[21]Hit or Stand (Player)[4]Bust&#45;&gt;[7]Playing[10]Dealer Win</title>
<path fill="none" stroke="red" d="M1413.41,-688.51C1428.78,-679.42 1442.79,-667.65 1452,-652.5 1461.81,-636.36 1462.23,-625.88 1452,-610 1445.35,-599.68 1424.16,-588.49 1400.88,-578.71"/>
<polygon fill="red" stroke="red" points="1402.43,-575.57 1391.85,-575.04 1399.8,-582.05 1402.43,-575.57"/>
</g>
<!-- [7]Playing[21]Hit or Stand (Player)[9]Blackjack&#45;&gt;[7]Playing[21]Hit or Stand (Dealer) -->
<g id="edge60" class="edge">
<title>[7]Playing[21]Hit or Stand (Player)[9]Blackjack&#45;&gt;[7]Playing[21]Hit or Stand (Dealer)</title>
<path fill="none" stroke="red" d="M1029.18,-962.28C958.42,-949.58 877.17,-935.01 813.7,-923.62"/>
<polygon fill="red" stroke="red" points="814.42,-920.2 803.96,-921.88 813.19,-927.09 814.42,-920.2"/>
</g>
<!-- [5]Lobby[5]Entry[10]Go to Home -->
<g id="node43" class="node">
<title>[5]Lobby[5]Entry[10]Go to Home</title>
<text xml:space="preserve" text-anchor="middle" x="1941" y="-113.2" font-family="Times,serif" font-size="14.00">[Go to Home]</text>
</g>
<!-- [5]Lobby[5]Entry&#45;&gt;[5]Lobby[5]Entry[10]Go to Home -->
<g id="edge1" class="edge">
<title>[5]Lobby[5]Entry&#45;&gt;[5]Lobby[5]Entry[10]Go to Home</title>
<path fill="none" stroke="blue" d="M1954.36,-183.47C1951.28,-168.57 1947.3,-149.31 1944.48,-135.71"/>
</g>
<!-- [5]Lobby[5]Entry[15]Entry Blackjack -->
<g id="node44" class="node">
<title>[5]Lobby[5]Entry[15]Entry Blackjack</title>
<text xml:space="preserve" text-anchor="middle" x="2198" y="-121.83" font-family="Times,serif" font-size="14.00">[Entry Blackjack]</text>
<text xml:space="preserve" text-anchor="middle" x="2198" y="-104.58" font-family="Times,serif" font-size="14.00">trans: (lambda ((pl : Player)) (make&#45;bj&#45;state pl n))</text>
</g>
<!-- [5]Lobby[5]Entry&#45;&gt;[5]Lobby[5]Entry[15]Entry Blackjack -->
<g id="edge3" class="edge">
<title>[5]Lobby[5]Entry&#45;&gt;[5]Lobby[5]Entry[15]Entry Blackjack</title>
<path fill="none" stroke="blue" d="M2020.86,-183.36C2058.48,-169.66 2106.12,-152.32 2142.52,-139.07"/>
</g>
<!-- [5]Lobby[4]Home -->
<g id="node45" class="node">
<title>[5]Lobby[4]Home</title>
<path fill="white" stroke="black" d="M1972.25,-52C1972.25,-52 1909.75,-52 1909.75,-52 1903.75,-52 1897.75,-46 1897.75,-40 1897.75,-40 1897.75,-28 1897.75,-28 1897.75,-22 1903.75,-16 1909.75,-16 1909.75,-16 1972.25,-16 1972.25,-16 1978.25,-16 1984.25,-22 1984.25,-28 1984.25,-28 1984.25,-40 1984.25,-40 1984.25,-46 1978.25,-52 1972.25,-52"/>
<text xml:space="preserve" text-anchor="middle" x="1941" y="-31.2" font-family="Times,serif" font-size="14.00">【Home】</text>
</g>
<!-- [5]Lobby[5]Entry[10]Go to Home&#45;&gt;[5]Lobby[4]Home -->
<g id="edge2" class="edge">
<title>[5]Lobby[5]Entry[10]Go to Home&#45;&gt;[5]Lobby[4]Home</title>
<path fill="none" stroke="blue" d="M1941,-99.91C1941,-89.44 1941,-75.74 1941,-63.63"/>
<polygon fill="blue" stroke="blue" points="1944.5,-63.74 1941,-53.74 1937.5,-63.74 1944.5,-63.74"/>
</g>
<!-- [5]Lobby[5]Entry[15]Entry Blackjack&#45;&gt;[9]Blackjack[5]Hello -->
<g id="edge4" class="edge">
<title>[5]Lobby[5]Entry[15]Entry Blackjack&#45;&gt;[9]Blackjack[5]Hello</title>
<path fill="none" stroke="blue" d="M2184.7,-139.12C2164.65,-171.64 2129,-238.17 2129,-300.12 2129,-391.12 2129,-391.12 2129,-391.12 2129,-464.85 1890.81,-519.42 1782.5,-540.42"/>
<polygon fill="blue" stroke="blue" points="1781.85,-536.98 1772.68,-542.3 1783.16,-543.86 1781.85,-536.98"/>
</g>
</g>
</svg>
