<?xml version="1.0" encoding="UTF-8" standalone="no"?>
<!DOCTYPE svg PUBLIC "-//W3C//DTD SVG 1.1//EN"
 "http://www.w3.org/Graphics/SVG/1.1/DTD/svg11.dtd">
<!-- Generated by graphviz version 14.1.1 (20251213.1925)
 -->
<!-- Title: G Pages: 1 -->
<svg width="1312pt" height="1178pt"
 viewBox="0.00 0.00 1312.00 1178.00" xmlns="http://www.w3.org/2000/svg" xmlns:xlink="http://www.w3.org/1999/xlink">
<g id="graph0" class="graph" transform="scale(1 1) rotate(0) translate(4 1173.5)">
<title>G</title>
<polygon fill="white" stroke="none" points="-4,4 -4,-1173.5 1308,-1173.5 1308,4 -4,4"/>
<g id="clust1" class="cluster">
<title>cluster_[10]Black Jack</title>
<polygon fill="none" stroke="black" points="8,-80 8,-1161.5 998,-1161.5 998,-80 8,-80"/>
<text xml:space="preserve" text-anchor="middle" x="503" y="-1144.2" font-family="Times,serif" font-size="14.00">Black Jack</text>
</g>
<g id="clust2" class="cluster">
<title>cluster_[7]Playing</title>
<polygon fill="none" stroke="black" points="16,-373.25 16,-1128.25 864,-1128.25 864,-373.25 16,-373.25"/>
<text xml:space="preserve" text-anchor="middle" x="440" y="-1110.95" font-family="Times,serif" font-size="14.00">Playing</text>
</g>
<g id="clust3" class="cluster">
<title>cluster_[5]Lobby</title>
<polygon fill="none" stroke="black" points="1006,-8 1006,-229.25 1296,-229.25 1296,-8 1006,-8"/>
<text xml:space="preserve" text-anchor="middle" x="1151" y="-211.95" font-family="Times,serif" font-size="14.00">Lobby</text>
</g>
<!-- [10]Black Jack[5]Hello -->
<g id="node1" class="node">
<title>[10]Black Jack[5]Hello</title>
<path fill="white" stroke="black" d="M954,-489.25C954,-489.25 896,-489.25 896,-489.25 890,-489.25 884,-483.25 884,-477.25 884,-477.25 884,-465.25 884,-465.25 884,-459.25 890,-453.25 896,-453.25 896,-453.25 954,-453.25 954,-453.25 960,-453.25 966,-459.25 966,-465.25 966,-465.25 966,-477.25 966,-477.25 966,-483.25 960,-489.25 954,-489.25"/>
<text xml:space="preserve" text-anchor="middle" x="925" y="-468.45" font-family="Times,serif" font-size="14.00">【Hello】</text>
</g>
<!-- [10]Black Jack[5]Hello[11]Initial Cut -->
<g id="node2" class="node">
<title>[10]Black Jack[5]Hello[11]Initial Cut</title>
<text xml:space="preserve" text-anchor="middle" x="921" y="-394.57" font-family="Times,serif" font-size="14.00">[Initial Cut]</text>
</g>
<!-- [10]Black Jack[5]Hello&#45;&gt;[10]Black Jack[5]Hello[11]Initial Cut -->
<g id="edge5" class="edge">
<title>[10]Black Jack[5]Hello&#45;&gt;[10]Black Jack[5]Hello[11]Initial Cut</title>
<path fill="none" stroke="red" d="M924.01,-452.95C923.38,-441.93 922.57,-427.75 921.95,-416.87"/>
</g>
<!-- [10]Black Jack[4]Idle -->
<g id="node3" class="node">
<title>[10]Black Jack[4]Idle</title>
<path fill="white" stroke="black" d="M723.75,-345.25C723.75,-345.25 676.25,-345.25 676.25,-345.25 670.25,-345.25 664.25,-339.25 664.25,-333.25 664.25,-333.25 664.25,-321.25 664.25,-321.25 664.25,-315.25 670.25,-309.25 676.25,-309.25 676.25,-309.25 723.75,-309.25 723.75,-309.25 729.75,-309.25 735.75,-315.25 735.75,-321.25 735.75,-321.25 735.75,-333.25 735.75,-333.25 735.75,-339.25 729.75,-345.25 723.75,-345.25"/>
<text xml:space="preserve" text-anchor="middle" x="700" y="-324.45" font-family="Times,serif" font-size="14.00">【Idle】</text>
</g>
<!-- [10]Black Jack[5]Hello[11]Initial Cut&#45;&gt;[10]Black Jack[4]Idle -->
<g id="edge6" class="edge">
<title>[10]Black Jack[5]Hello[11]Initial Cut&#45;&gt;[10]Black Jack[4]Idle</title>
<path fill="none" stroke="red" d="M887.46,-381.33C881.08,-378.43 874.4,-375.6 868,-373.25 828.01,-358.6 781.08,-346.43 747.01,-338.46"/>
<polygon fill="red" stroke="red" points="747.98,-335.09 737.45,-336.26 746.41,-341.91 747.98,-335.09"/>
</g>
<!-- [10]Black Jack[4]Idle[3]Cut -->
<g id="node4" class="node">
<title>[10]Black Jack[4]Idle[3]Cut</title>
<text xml:space="preserve" text-anchor="middle" x="677" y="-250.57" font-family="Times,serif" font-size="14.00">[Cut]</text>
</g>
<!-- [10]Black Jack[4]Idle&#45;&gt;[10]Black Jack[4]Idle[3]Cut -->
<g id="edge7" class="edge">
<title>[10]Black Jack[4]Idle&#45;&gt;[10]Black Jack[4]Idle[3]Cut</title>
<path fill="none" stroke="red" d="M688.4,-308.95C683.64,-297.93 679.01,-283.75 676.62,-272.87"/>
</g>
<!-- [10]Black Jack[4]Idle[3]Bet -->
<g id="node5" class="node">
<title>[10]Black Jack[4]Idle[3]Bet</title>
<text xml:space="preserve" text-anchor="middle" x="780" y="-250.57" font-family="Times,serif" font-size="14.00">[Bet]</text>
</g>
<!-- [10]Black Jack[4]Idle&#45;&gt;[10]Black Jack[4]Idle[3]Bet -->
<g id="edge9" class="edge">
<title>[10]Black Jack[4]Idle&#45;&gt;[10]Black Jack[4]Idle[3]Bet</title>
<path fill="none" stroke="blue" d="M719.78,-308.95C732.27,-298.02 748.33,-283.96 760.73,-273.11"/>
</g>
<!-- [10]Black Jack[4]Idle[11]Go to Lobby -->
<g id="node6" class="node">
<title>[10]Black Jack[4]Idle[11]Go to Lobby</title>
<text xml:space="preserve" text-anchor="middle" x="934" y="-250.57" font-family="Times,serif" font-size="14.00">[Go to Lobby]</text>
</g>
<!-- [10]Black Jack[4]Idle&#45;&gt;[10]Black Jack[4]Idle[11]Go to Lobby -->
<g id="edge11" class="edge">
<title>[10]Black Jack[4]Idle&#45;&gt;[10]Black Jack[4]Idle[11]Go to Lobby</title>
<path fill="none" stroke="blue" d="M736.05,-315.47C773.87,-304.15 833.82,-286.22 877.85,-273.05"/>
</g>
<!-- [10]Black Jack[4]Idle[3]Cut&#45;&gt;[10]Black Jack[4]Idle -->
<g id="edge8" class="edge">
<title>[10]Black Jack[4]Idle[3]Cut&#45;&gt;[10]Black Jack[4]Idle</title>
<path fill="none" stroke="red" d="M688.31,-272.87C691.58,-280.35 694.81,-289.39 697.32,-297.89"/>
<polygon fill="red" stroke="red" points="693.92,-298.7 699.85,-307.48 700.69,-296.92 693.92,-298.7"/>
</g>
<!-- [10]Black Jack[7]Betting -->
<g id="node7" class="node">
<title>[10]Black Jack[7]Betting</title>
<path fill="white" stroke="black" d="M827.88,-196C827.88,-196 754.12,-196 754.12,-196 748.12,-196 742.12,-190 742.12,-184 742.12,-184 742.12,-172 742.12,-172 742.12,-166 748.12,-160 754.12,-160 754.12,-160 827.88,-160 827.88,-160 833.88,-160 839.88,-166 839.88,-172 839.88,-172 839.88,-184 839.88,-184 839.88,-190 833.88,-196 827.88,-196"/>
<text xml:space="preserve" text-anchor="middle" x="791" y="-175.2" font-family="Times,serif" font-size="14.00">【Betting】</text>
</g>
<!-- [10]Black Jack[4]Idle[3]Bet&#45;&gt;[10]Black Jack[7]Betting -->
<g id="edge10" class="edge">
<title>[10]Black Jack[4]Idle[3]Bet&#45;&gt;[10]Black Jack[7]Betting</title>
<path fill="none" stroke="blue" d="M782.44,-237.55C783.72,-228.77 785.33,-217.77 786.81,-207.68"/>
<polygon fill="blue" stroke="blue" points="790.25,-208.34 788.23,-197.94 783.32,-207.32 790.25,-208.34"/>
</g>
<!-- [5]Lobby[5]Entry -->
<g id="node42" class="node">
<title>[5]Lobby[5]Entry</title>
<path fill="white" stroke="black" d="M1100.5,-196C1100.5,-196 1039.5,-196 1039.5,-196 1033.5,-196 1027.5,-190 1027.5,-184 1027.5,-184 1027.5,-172 1027.5,-172 1027.5,-166 1033.5,-160 1039.5,-160 1039.5,-160 1100.5,-160 1100.5,-160 1106.5,-160 1112.5,-166 1112.5,-172 1112.5,-172 1112.5,-184 1112.5,-184 1112.5,-190 1106.5,-196 1100.5,-196"/>
<text xml:space="preserve" text-anchor="middle" x="1070" y="-175.2" font-family="Times,serif" font-size="14.00">【Entry】</text>
</g>
<!-- [10]Black Jack[4]Idle[11]Go to Lobby&#45;&gt;[5]Lobby[5]Entry -->
<g id="edge12" class="edge">
<title>[10]Black Jack[4]Idle[11]Go to Lobby&#45;&gt;[5]Lobby[5]Entry</title>
<path fill="none" stroke="blue" d="M984.84,-237.38C990.73,-234.89 996.57,-232.17 1002,-229.25 1015.46,-222 1029.22,-212.33 1040.81,-203.41"/>
<polygon fill="blue" stroke="blue" points="1042.73,-206.36 1048.41,-197.41 1038.39,-200.86 1042.73,-206.36"/>
</g>
<!-- [10]Black Jack[7]Betting[15]Wallet is empty -->
<g id="node8" class="node">
<title>[10]Black Jack[7]Betting[15]Wallet is empty</title>
<text xml:space="preserve" text-anchor="middle" x="727" y="-101.33" font-family="Times,serif" font-size="14.00">[Wallet is empty]</text>
</g>
<!-- [10]Black Jack[7]Betting&#45;&gt;[10]Black Jack[7]Betting[15]Wallet is empty -->
<g id="edge13" class="edge">
<title>[10]Black Jack[7]Betting&#45;&gt;[10]Black Jack[7]Betting[15]Wallet is empty</title>
<path fill="none" stroke="red" d="M775.18,-159.7C765.11,-148.68 752.14,-134.5 742.2,-123.62"/>
</g>
<!-- [10]Black Jack[7]Betting[5]Input -->
<g id="node9" class="node">
<title>[10]Black Jack[7]Betting[5]Input</title>
<text xml:space="preserve" text-anchor="middle" x="854" y="-101.33" font-family="Times,serif" font-size="14.00">[Input]</text>
</g>
<!-- [10]Black Jack[7]Betting&#45;&gt;[10]Black Jack[7]Betting[5]Input -->
<g id="edge15" class="edge">
<title>[10]Black Jack[7]Betting&#45;&gt;[10]Black Jack[7]Betting[5]Input</title>
<path fill="none" stroke="red" d="M806.57,-159.7C816.48,-148.68 829.25,-134.5 839.04,-123.62"/>
</g>
<!-- [10]Black Jack[7]Betting[15]Wallet is empty&#45;&gt;[10]Black Jack[4]Idle -->
<g id="edge14" class="edge">
<title>[10]Black Jack[7]Betting[15]Wallet is empty&#45;&gt;[10]Black Jack[4]Idle</title>
<path fill="none" stroke="red" d="M726.46,-123.62C725.3,-153.67 721.89,-218.94 713,-273.25 711.66,-281.42 709.73,-290.18 707.75,-298.18"/>
<polygon fill="red" stroke="red" points="704.4,-297.18 705.28,-307.74 711.17,-298.93 704.4,-297.18"/>
</g>
<!-- [7]Playing[24]Dealing a Card to Player -->
<g id="node10" class="node">
<title>[7]Playing[24]Dealing a Card to Player</title>
<path fill="white" stroke="black" d="M729,-1095C729,-1095 533,-1095 533,-1095 527,-1095 521,-1089 521,-1083 521,-1083 521,-1071 521,-1071 521,-1065 527,-1059 533,-1059 533,-1059 729,-1059 729,-1059 735,-1059 741,-1065 741,-1071 741,-1071 741,-1083 741,-1083 741,-1089 735,-1095 729,-1095"/>
<text xml:space="preserve" text-anchor="middle" x="631" y="-1074.2" font-family="Times,serif" font-size="14.00">【Dealing a Card to Player】</text>
</g>
<!-- [10]Black Jack[7]Betting[5]Input&#45;&gt;[7]Playing[24]Dealing a Card to Player -->
<g id="edge16" class="edge">
<title>[10]Black Jack[7]Betting[5]Input&#45;&gt;[7]Playing[24]Dealing a Card to Player</title>
<path fill="none" stroke="red" d="M851.7,-123.64C848.17,-154.82 844.22,-223.43 869,-273.25 898.42,-332.41 949.2,-314.28 979,-373.25 998.55,-411.93 989,-426.91 989,-470.25 989,-924.25 989,-924.25 989,-924.25 989,-1029.44 856.36,-1062.8 752.56,-1072.8"/>
<polygon fill="red" stroke="red" points="752.49,-1069.29 742.84,-1073.66 753.11,-1076.26 752.49,-1069.29"/>
</g>
<!-- [7]Playing[24]Dealing a Card to Player[12]Dealing Fail -->
<g id="node11" class="node">
<title>[7]Playing[24]Dealing a Card to Player[12]Dealing Fail</title>
<text xml:space="preserve" text-anchor="middle" x="96" y="-927.2" font-family="Times,serif" font-size="14.00">[Dealing Fail]</text>
<text xml:space="preserve" text-anchor="middle" x="96" y="-909.95" font-family="Times,serif" font-size="14.00">when empty shoe</text>
</g>
<!-- [7]Playing[24]Dealing a Card to Player&#45;&gt;[7]Playing[24]Dealing a Card to Player[12]Dealing Fail -->
<g id="edge17" class="edge">
<title>[7]Playing[24]Dealing a Card to Player&#45;&gt;[7]Playing[24]Dealing a Card to Player[12]Dealing Fail</title>
<path fill="none" stroke="red" d="M520.6,-1068.54C451.31,-1061.58 360.85,-1048.26 284,-1023 225.16,-1003.66 162.58,-967.17 126.51,-944.38"/>
</g>
<!-- [7]Playing[24]Dealing a Card to Player[21]Deal a Card to dealer -->
<g id="node12" class="node">
<title>[7]Playing[24]Dealing a Card to Player[21]Deal a Card to dealer</title>
<text xml:space="preserve" text-anchor="middle" x="382" y="-1005.7" font-family="Times,serif" font-size="14.00">[Deal a Card to dealer]</text>
<text xml:space="preserve" text-anchor="middle" x="382" y="-988.45" font-family="Times,serif" font-size="14.00">when (hand &lt; 2)</text>
</g>
<!-- [7]Playing[24]Dealing a Card to Player&#45;&gt;[7]Playing[24]Dealing a Card to Player[21]Deal a Card to dealer -->
<g id="edge19" class="edge">
<title>[7]Playing[24]Dealing a Card to Player&#45;&gt;[7]Playing[24]Dealing a Card to Player[21]Deal a Card to dealer</title>
<path fill="none" stroke="red" d="M571.67,-1058.55C535.28,-1047.84 488.54,-1034.09 450.57,-1022.92"/>
</g>
<!-- [7]Playing[24]Dealing a Card to Player[16]Return to player -->
<g id="node13" class="node">
<title>[7]Playing[24]Dealing a Card to Player[16]Return to player</title>
<text xml:space="preserve" text-anchor="middle" x="701" y="-997.08" font-family="Times,serif" font-size="14.00">[Return to player]</text>
</g>
<!-- [7]Playing[24]Dealing a Card to Player&#45;&gt;[7]Playing[24]Dealing a Card to Player[16]Return to player -->
<g id="edge21" class="edge">
<title>[7]Playing[24]Dealing a Card to Player&#45;&gt;[7]Playing[24]Dealing a Card to Player[16]Return to player</title>
<path fill="none" stroke="red" d="M647.59,-1058.64C658.83,-1046.88 673.61,-1031.41 684.77,-1019.73"/>
</g>
<!-- [7]Playing[14]Dealer Misdeal -->
<g id="node14" class="node">
<title>[7]Playing[14]Dealer Misdeal</title>
<path fill="white" stroke="black" d="M174.25,-787.5C174.25,-787.5 45.75,-787.5 45.75,-787.5 39.75,-787.5 33.75,-781.5 33.75,-775.5 33.75,-775.5 33.75,-753.25 33.75,-753.25 33.75,-747.25 39.75,-741.25 45.75,-741.25 45.75,-741.25 174.25,-741.25 174.25,-741.25 180.25,-741.25 186.25,-747.25 186.25,-753.25 186.25,-753.25 186.25,-775.5 186.25,-775.5 186.25,-781.5 180.25,-787.5 174.25,-787.5"/>
<text xml:space="preserve" text-anchor="middle" x="110" y="-770.2" font-family="Times,serif" font-size="14.00">【Dealer Misdeal】</text>
<text xml:space="preserve" text-anchor="middle" x="110" y="-749.2" font-family="Times,serif" font-size="14.00">(Empty Shoe)</text>
</g>
<!-- [7]Playing[24]Dealing a Card to Player[12]Dealing Fail&#45;&gt;[7]Playing[14]Dealer Misdeal -->
<g id="edge18" class="edge">
<title>[7]Playing[24]Dealing a Card to Player[12]Dealing Fail&#45;&gt;[7]Playing[14]Dealer Misdeal</title>
<path fill="none" stroke="red" d="M64.99,-902.14C53.3,-892.71 41.3,-880.38 35,-866 27.42,-848.7 26.69,-840.46 35,-823.5 40.44,-812.4 49.13,-802.82 58.71,-794.81"/>
<polygon fill="red" stroke="red" points="60.69,-797.7 66.48,-788.83 56.42,-792.15 60.69,-797.7"/>
</g>
<!-- [7]Playing[24]Dealing a Card to Dealer -->
<g id="node18" class="node">
<title>[7]Playing[24]Dealing a Card to Dealer</title>
<path fill="white" stroke="black" d="M394.75,-941.25C394.75,-941.25 197.25,-941.25 197.25,-941.25 191.25,-941.25 185.25,-935.25 185.25,-929.25 185.25,-929.25 185.25,-917.25 185.25,-917.25 185.25,-911.25 191.25,-905.25 197.25,-905.25 197.25,-905.25 394.75,-905.25 394.75,-905.25 400.75,-905.25 406.75,-911.25 406.75,-917.25 406.75,-917.25 406.75,-929.25 406.75,-929.25 406.75,-935.25 400.75,-941.25 394.75,-941.25"/>
<text xml:space="preserve" text-anchor="middle" x="296" y="-920.45" font-family="Times,serif" font-size="14.00">【Dealing a Card to Dealer】</text>
</g>
<!-- [7]Playing[24]Dealing a Card to Player[21]Deal a Card to dealer&#45;&gt;[7]Playing[24]Dealing a Card to Dealer -->
<g id="edge20" class="edge">
<title>[7]Playing[24]Dealing a Card to Player[21]Deal a Card to dealer&#45;&gt;[7]Playing[24]Dealing a Card to Dealer</title>
<path fill="none" stroke="red" d="M359.4,-980.65C348.54,-970.98 335.41,-959.31 323.92,-949.09"/>
<polygon fill="red" stroke="red" points="326.45,-946.66 316.66,-942.62 321.8,-951.89 326.45,-946.66"/>
</g>
<!-- [7]Playing[21]Hit or Stand (Player) -->
<g id="node37" class="node">
<title>[7]Playing[21]Hit or Stand (Player)</title>
<path fill="white" stroke="black" d="M797.88,-941.25C797.88,-941.25 628.12,-941.25 628.12,-941.25 622.12,-941.25 616.12,-935.25 616.12,-929.25 616.12,-929.25 616.12,-917.25 616.12,-917.25 616.12,-911.25 622.12,-905.25 628.12,-905.25 628.12,-905.25 797.88,-905.25 797.88,-905.25 803.88,-905.25 809.88,-911.25 809.88,-917.25 809.88,-917.25 809.88,-929.25 809.88,-929.25 809.88,-935.25 803.88,-941.25 797.88,-941.25"/>
<text xml:space="preserve" text-anchor="middle" x="713" y="-920.45" font-family="Times,serif" font-size="14.00">【Hit or Stand (Player)】</text>
</g>
<!-- [7]Playing[24]Dealing a Card to Player[16]Return to player&#45;&gt;[7]Playing[21]Hit or Stand (Player) -->
<g id="edge22" class="edge">
<title>[7]Playing[24]Dealing a Card to Player[16]Return to player&#45;&gt;[7]Playing[21]Hit or Stand (Player)</title>
<path fill="none" stroke="red" d="M703.66,-983.77C705.09,-974.69 706.88,-963.26 708.51,-952.85"/>
<polygon fill="red" stroke="red" points="711.93,-953.63 710.03,-943.21 705.02,-952.54 711.93,-953.63"/>
</g>
<!-- [7]Playing[14]Dealer Misdeal[11]Player win! -->
<g id="node15" class="node">
<title>[7]Playing[14]Dealer Misdeal[11]Player win!</title>
<text xml:space="preserve" text-anchor="middle" x="190" y="-610.58" font-family="Times,serif" font-size="14.00">[Player win!]</text>
</g>
<!-- [7]Playing[14]Dealer Misdeal&#45;&gt;[7]Playing[14]Dealer Misdeal[11]Player win! -->
<g id="edge23" class="edge">
<title>[7]Playing[14]Dealer Misdeal&#45;&gt;[7]Playing[14]Dealer Misdeal[11]Player win!</title>
<path fill="none" stroke="red" d="M122.15,-741.03C138.32,-711.29 166.55,-659.37 180.97,-632.86"/>
</g>
<!-- [7]Playing[10]Player Win -->
<g id="node16" class="node">
<title>[7]Playing[10]Player Win</title>
<path fill="white" stroke="black" d="M392.25,-489.25C392.25,-489.25 293.75,-489.25 293.75,-489.25 287.75,-489.25 281.75,-483.25 281.75,-477.25 281.75,-477.25 281.75,-465.25 281.75,-465.25 281.75,-459.25 287.75,-453.25 293.75,-453.25 293.75,-453.25 392.25,-453.25 392.25,-453.25 398.25,-453.25 404.25,-459.25 404.25,-465.25 404.25,-465.25 404.25,-477.25 404.25,-477.25 404.25,-483.25 398.25,-489.25 392.25,-489.25"/>
<text xml:space="preserve" text-anchor="middle" x="343" y="-468.45" font-family="Times,serif" font-size="14.00">【Player Win】</text>
</g>
<!-- [7]Playing[14]Dealer Misdeal[11]Player win!&#45;&gt;[7]Playing[10]Player Win -->
<g id="edge24" class="edge">
<title>[7]Playing[14]Dealer Misdeal[11]Player win!&#45;&gt;[7]Playing[10]Player Win</title>
<path fill="none" stroke="red" d="M208.15,-597.4C234.92,-572.56 285.16,-525.93 316.19,-497.13"/>
<polygon fill="red" stroke="red" points="318.34,-499.92 323.29,-490.55 313.57,-494.78 318.34,-499.92"/>
</g>
<!-- [7]Playing[10]Player Win[6]Return -->
<g id="node17" class="node">
<title>[7]Playing[10]Player Win[6]Return</title>
<text xml:space="preserve" text-anchor="middle" x="379" y="-394.57" font-family="Times,serif" font-size="14.00">[Return]</text>
</g>
<!-- [7]Playing[10]Player Win&#45;&gt;[7]Playing[10]Player Win[6]Return -->
<g id="edge25" class="edge">
<title>[7]Playing[10]Player Win&#45;&gt;[7]Playing[10]Player Win[6]Return</title>
<path fill="none" stroke="red" d="M351.9,-452.95C357.56,-441.93 364.86,-427.75 370.45,-416.87"/>
</g>
<!-- [7]Playing[10]Player Win[6]Return&#45;&gt;[10]Black Jack[4]Idle -->
<g id="edge26" class="edge">
<title>[7]Playing[10]Player Win[6]Return&#45;&gt;[10]Black Jack[4]Idle</title>
<path fill="none" stroke="red" d="M416.83,-386.1C431.2,-381.72 447.77,-376.95 463,-373.25 528.23,-357.39 604.68,-343.75 652.74,-335.77"/>
<polygon fill="red" stroke="red" points="653.23,-339.23 662.53,-334.16 652.09,-332.33 653.23,-339.23"/>
</g>
<!-- [7]Playing[24]Dealing a Card to Dealer[12]Dealing Fail -->
<g id="node19" class="node">
<title>[7]Playing[24]Dealing a Card to Dealer[12]Dealing Fail</title>
<text xml:space="preserve" text-anchor="middle" x="115" y="-848.7" font-family="Times,serif" font-size="14.00">[Dealing Fail]</text>
<text xml:space="preserve" text-anchor="middle" x="115" y="-831.45" font-family="Times,serif" font-size="14.00">when empty shoe</text>
</g>
<!-- [7]Playing[24]Dealing a Card to Dealer&#45;&gt;[7]Playing[24]Dealing a Card to Dealer[12]Dealing Fail -->
<g id="edge27" class="edge">
<title>[7]Playing[24]Dealing a Card to Dealer&#45;&gt;[7]Playing[24]Dealing a Card to Dealer[12]Dealing Fail</title>
<path fill="none" stroke="red" d="M254.93,-904.89C227.5,-893.3 191.33,-878.01 162.63,-865.88"/>
</g>
<!-- [7]Playing[24]Dealing a Card to Dealer[21]Deal a Card to player -->
<g id="node20" class="node">
<title>[7]Playing[24]Dealing a Card to Dealer[21]Deal a Card to player</title>
<text xml:space="preserve" text-anchor="middle" x="476" y="-848.7" font-family="Times,serif" font-size="14.00">[Deal a Card to player]</text>
<text xml:space="preserve" text-anchor="middle" x="476" y="-831.45" font-family="Times,serif" font-size="14.00">when (hand &lt; 2)</text>
</g>
<!-- [7]Playing[24]Dealing a Card to Dealer&#45;&gt;[7]Playing[24]Dealing a Card to Dealer[21]Deal a Card to player -->
<g id="edge29" class="edge">
<title>[7]Playing[24]Dealing a Card to Dealer&#45;&gt;[7]Playing[24]Dealing a Card to Dealer[21]Deal a Card to player</title>
<path fill="none" stroke="red" d="M336.84,-904.89C364.12,-893.3 400.1,-878.01 428.63,-865.88"/>
</g>
<!-- [7]Playing[24]Dealing a Card to Dealer[16]Return to dealer -->
<g id="node21" class="node">
<title>[7]Playing[24]Dealing a Card to Dealer[16]Return to dealer</title>
<text xml:space="preserve" text-anchor="middle" x="296" y="-848.7" font-family="Times,serif" font-size="14.00">[Return to dealer]</text>
<text xml:space="preserve" text-anchor="middle" x="296" y="-831.45" font-family="Times,serif" font-size="14.00">when dealer turn</text>
</g>
<!-- [7]Playing[24]Dealing a Card to Dealer&#45;&gt;[7]Playing[24]Dealing a Card to Dealer[16]Return to dealer -->
<g id="edge31" class="edge">
<title>[7]Playing[24]Dealing a Card to Dealer&#45;&gt;[7]Playing[24]Dealing a Card to Dealer[16]Return to dealer</title>
<path fill="none" stroke="red" d="M296,-904.89C296,-893.25 296,-877.89 296,-865.74"/>
</g>
<!-- [7]Playing[24]Dealing a Card to Dealer[12]Dealing Fail&#45;&gt;[7]Playing[14]Dealer Misdeal -->
<g id="edge28" class="edge">
<title>[7]Playing[24]Dealing a Card to Dealer[12]Dealing Fail&#45;&gt;[7]Playing[14]Dealer Misdeal</title>
<path fill="none" stroke="red" d="M113.71,-823.57C113.24,-816.17 112.69,-807.58 112.16,-799.3"/>
<polygon fill="red" stroke="red" points="115.67,-799.25 111.54,-789.49 108.68,-799.69 115.67,-799.25"/>
</g>
<!-- [7]Playing[24]Dealing a Card to Dealer[21]Deal a Card to player&#45;&gt;[7]Playing[24]Dealing a Card to Player -->
<g id="edge30" class="edge">
<title>[7]Playing[24]Dealing a Card to Dealer[21]Deal a Card to player&#45;&gt;[7]Playing[24]Dealing a Card to Player</title>
<path fill="none" stroke="red" d="M489.53,-865.86C517.48,-907.37 581.59,-1002.6 612.99,-1049.25"/>
<polygon fill="red" stroke="red" points="610.02,-1051.1 618.5,-1057.44 615.82,-1047.19 610.02,-1051.1"/>
</g>
<!-- [7]Playing[21]Hit or Stand (Dealer) -->
<g id="node22" class="node">
<title>[7]Playing[21]Hit or Stand (Dealer)</title>
<path fill="white" stroke="black" d="M512.62,-782.38C512.62,-782.38 341.38,-782.38 341.38,-782.38 335.38,-782.38 329.38,-776.38 329.38,-770.38 329.38,-770.38 329.38,-758.38 329.38,-758.38 329.38,-752.38 335.38,-746.38 341.38,-746.38 341.38,-746.38 512.62,-746.38 512.62,-746.38 518.62,-746.38 524.62,-752.38 524.62,-758.38 524.62,-758.38 524.62,-770.38 524.62,-770.38 524.62,-776.38 518.62,-782.38 512.62,-782.38"/>
<text xml:space="preserve" text-anchor="middle" x="427" y="-761.58" font-family="Times,serif" font-size="14.00">【Hit or Stand (Dealer)】</text>
</g>
<!-- [7]Playing[24]Dealing a Card to Dealer[16]Return to dealer&#45;&gt;[7]Playing[21]Hit or Stand (Dealer) -->
<g id="edge32" class="edge">
<title>[7]Playing[24]Dealing a Card to Dealer[16]Return to dealer&#45;&gt;[7]Playing[21]Hit or Stand (Dealer)</title>
<path fill="none" stroke="red" d="M329.74,-823.57C347.6,-812.88 369.62,-799.7 388.19,-788.59"/>
<polygon fill="red" stroke="red" points="389.74,-791.74 396.53,-783.61 386.15,-785.74 389.74,-791.74"/>
</g>
<!-- [7]Playing[21]Hit or Stand (Dealer)[3]Hit -->
<g id="node23" class="node">
<title>[7]Playing[21]Hit or Stand (Dealer)[3]Hit</title>
<text xml:space="preserve" text-anchor="middle" x="260" y="-682.58" font-family="Times,serif" font-size="14.00">[Hit]</text>
</g>
<!-- [7]Playing[21]Hit or Stand (Dealer)&#45;&gt;[7]Playing[21]Hit or Stand (Dealer)[3]Hit -->
<g id="edge33" class="edge">
<title>[7]Playing[21]Hit or Stand (Dealer)&#45;&gt;[7]Playing[21]Hit or Stand (Dealer)[3]Hit</title>
<path fill="none" stroke="red" d="M388.27,-745.95C357.14,-731.95 314.24,-712.65 286.81,-700.31"/>
</g>
<!-- [7]Playing[21]Hit or Stand (Dealer)[5]Stand -->
<g id="node24" class="node">
<title>[7]Playing[21]Hit or Stand (Dealer)[5]Stand</title>
<text xml:space="preserve" text-anchor="middle" x="468" y="-682.58" font-family="Times,serif" font-size="14.00">[Stand]</text>
</g>
<!-- [7]Playing[21]Hit or Stand (Dealer)&#45;&gt;[7]Playing[21]Hit or Stand (Dealer)[5]Stand -->
<g id="edge35" class="edge">
<title>[7]Playing[21]Hit or Stand (Dealer)&#45;&gt;[7]Playing[21]Hit or Stand (Dealer)[5]Stand</title>
<path fill="none" stroke="red" d="M436.51,-745.95C443.23,-733.64 452.18,-717.23 458.82,-705.06"/>
</g>
<!-- [7]Playing[21]Hit or Stand (Dealer)[4]Bust -->
<g id="node25" class="node">
<title>[7]Playing[21]Hit or Stand (Dealer)[4]Bust</title>
<text xml:space="preserve" text-anchor="middle" x="374" y="-682.58" font-family="Times,serif" font-size="14.00">[Bust]</text>
</g>
<!-- [7]Playing[21]Hit or Stand (Dealer)&#45;&gt;[7]Playing[21]Hit or Stand (Dealer)[4]Bust -->
<g id="edge37" class="edge">
<title>[7]Playing[21]Hit or Stand (Dealer)&#45;&gt;[7]Playing[21]Hit or Stand (Dealer)[4]Bust</title>
<path fill="none" stroke="red" d="M414.71,-745.95C406.02,-733.64 394.45,-717.23 385.86,-705.06"/>
</g>
<!-- [7]Playing[21]Hit or Stand (Dealer)[3]Hit&#45;&gt;[7]Playing[24]Dealing a Card to Dealer -->
<g id="edge34" class="edge">
<title>[7]Playing[21]Hit or Stand (Dealer)[3]Hit&#45;&gt;[7]Playing[24]Dealing a Card to Dealer</title>
<path fill="none" stroke="red" d="M248.16,-705.1C226.77,-737.8 186.45,-811.42 215,-866 222.02,-879.42 233.86,-890.28 246.35,-898.75"/>
<polygon fill="red" stroke="red" points="244.34,-901.62 254.67,-903.96 248.05,-895.69 244.34,-901.62"/>
</g>
<!-- [7]Playing[9]Judgement -->
<g id="node26" class="node">
<title>[7]Playing[9]Judgement</title>
<path fill="white" stroke="black" d="M540.88,-633.25C540.88,-633.25 443.12,-633.25 443.12,-633.25 437.12,-633.25 431.12,-627.25 431.12,-621.25 431.12,-621.25 431.12,-609.25 431.12,-609.25 431.12,-603.25 437.12,-597.25 443.12,-597.25 443.12,-597.25 540.88,-597.25 540.88,-597.25 546.88,-597.25 552.88,-603.25 552.88,-609.25 552.88,-609.25 552.88,-621.25 552.88,-621.25 552.88,-627.25 546.88,-633.25 540.88,-633.25"/>
<text xml:space="preserve" text-anchor="middle" x="492" y="-612.45" font-family="Times,serif" font-size="14.00">【Judgement】</text>
</g>
<!-- [7]Playing[21]Hit or Stand (Dealer)[5]Stand&#45;&gt;[7]Playing[9]Judgement -->
<g id="edge36" class="edge">
<title>[7]Playing[21]Hit or Stand (Dealer)[5]Stand&#45;&gt;[7]Playing[9]Judgement</title>
<path fill="none" stroke="red" d="M473.81,-669.3C476.39,-661.77 479.51,-652.69 482.42,-644.19"/>
<polygon fill="red" stroke="red" points="485.65,-645.55 485.59,-634.96 479.03,-643.28 485.65,-645.55"/>
</g>
<!-- [7]Playing[21]Hit or Stand (Dealer)[4]Bust&#45;&gt;[7]Playing[10]Player Win -->
<g id="edge38" class="edge">
<title>[7]Playing[21]Hit or Stand (Dealer)[4]Bust&#45;&gt;[7]Playing[10]Player Win</title>
<path fill="none" stroke="red" d="M364.71,-669.52C352.31,-646.13 330.99,-601.96 323,-561.25 319.92,-545.55 320.13,-540.99 323,-525.25 324.54,-516.83 327.34,-508.02 330.37,-500.04"/>
<polygon fill="red" stroke="red" points="333.58,-501.44 334.12,-490.86 327.1,-498.79 333.58,-501.44"/>
</g>
<!-- [7]Playing[9]Judgement[14]Blackjack Win! -->
<g id="node27" class="node">
<title>[7]Playing[9]Judgement[14]Blackjack Win!</title>
<text xml:space="preserve" text-anchor="middle" x="610" y="-538.58" font-family="Times,serif" font-size="14.00">[Blackjack Win!]</text>
</g>
<!-- [7]Playing[9]Judgement&#45;&gt;[7]Playing[9]Judgement[14]Blackjack Win! -->
<g id="edge39" class="edge">
<title>[7]Playing[9]Judgement&#45;&gt;[7]Playing[9]Judgement[14]Blackjack Win!</title>
<path fill="none" stroke="red" d="M521.47,-596.77C539.9,-585.83 563.51,-571.83 581.72,-561.03"/>
</g>
<!-- [7]Playing[9]Judgement[11]Player win! -->
<g id="node28" class="node">
<title>[7]Playing[9]Judgement[11]Player win!</title>
<text xml:space="preserve" text-anchor="middle" x="386" y="-538.58" font-family="Times,serif" font-size="14.00">[Player win!]</text>
</g>
<!-- [7]Playing[9]Judgement&#45;&gt;[7]Playing[9]Judgement[11]Player win! -->
<g id="edge41" class="edge">
<title>[7]Playing[9]Judgement&#45;&gt;[7]Playing[9]Judgement[11]Player win!</title>
<path fill="none" stroke="red" d="M465.53,-596.77C448.97,-585.83 427.76,-571.83 411.41,-561.03"/>
</g>
<!-- [7]Playing[9]Judgement[5]Push! -->
<g id="node29" class="node">
<title>[7]Playing[9]Judgement[5]Push!</title>
<text xml:space="preserve" text-anchor="middle" x="492" y="-538.58" font-family="Times,serif" font-size="14.00">[Push!]</text>
</g>
<!-- [7]Playing[9]Judgement&#45;&gt;[7]Playing[9]Judgement[5]Push! -->
<g id="edge43" class="edge">
<title>[7]Playing[9]Judgement&#45;&gt;[7]Playing[9]Judgement[5]Push!</title>
<path fill="none" stroke="red" d="M492,-596.95C492,-585.93 492,-571.75 492,-560.87"/>
</g>
<!-- [7]Playing[9]Judgement[11]Dealer Win! -->
<g id="node30" class="node">
<title>[7]Playing[9]Judgement[11]Dealer Win!</title>
<text xml:space="preserve" text-anchor="middle" x="750" y="-538.58" font-family="Times,serif" font-size="14.00">[Dealer Win!]</text>
</g>
<!-- [7]Playing[9]Judgement&#45;&gt;[7]Playing[9]Judgement[11]Dealer Win! -->
<g id="edge45" class="edge">
<title>[7]Playing[9]Judgement&#45;&gt;[7]Playing[9]Judgement[11]Dealer Win!</title>
<path fill="none" stroke="red" d="M553.14,-597.66C595.91,-586.06 652.59,-570.68 694.14,-559.41"/>
</g>
<!-- [7]Playing[13]Blackjack Win -->
<g id="node31" class="node">
<title>[7]Playing[13]Blackjack Win</title>
<path fill="white" stroke="black" d="M682.12,-489.25C682.12,-489.25 561.88,-489.25 561.88,-489.25 555.88,-489.25 549.88,-483.25 549.88,-477.25 549.88,-477.25 549.88,-465.25 549.88,-465.25 549.88,-459.25 555.88,-453.25 561.88,-453.25 561.88,-453.25 682.12,-453.25 682.12,-453.25 688.12,-453.25 694.12,-459.25 694.12,-465.25 694.12,-465.25 694.12,-477.25 694.12,-477.25 694.12,-483.25 688.12,-489.25 682.12,-489.25"/>
<text xml:space="preserve" text-anchor="middle" x="622" y="-468.45" font-family="Times,serif" font-size="14.00">【Blackjack Win】</text>
</g>
<!-- [7]Playing[9]Judgement[14]Blackjack Win!&#45;&gt;[7]Playing[13]Blackjack Win -->
<g id="edge40" class="edge">
<title>[7]Playing[9]Judgement[14]Blackjack Win!&#45;&gt;[7]Playing[13]Blackjack Win</title>
<path fill="none" stroke="red" d="M612.9,-525.3C614.17,-517.93 615.68,-509.09 617.11,-500.76"/>
<polygon fill="red" stroke="red" points="620.54,-501.46 618.78,-491.02 613.64,-500.28 620.54,-501.46"/>
</g>
<!-- [7]Playing[9]Judgement[11]Player win!&#45;&gt;[7]Playing[10]Player Win -->
<g id="edge42" class="edge">
<title>[7]Playing[9]Judgement[11]Player win!&#45;&gt;[7]Playing[10]Player Win</title>
<path fill="none" stroke="red" d="M375.59,-525.3C370.8,-517.51 365,-508.07 359.63,-499.33"/>
<polygon fill="red" stroke="red" points="362.62,-497.5 354.4,-490.81 356.66,-501.17 362.62,-497.5"/>
</g>
<!-- [7]Playing[4]Push -->
<g id="node33" class="node">
<title>[7]Playing[4]Push</title>
<path fill="white" stroke="black" d="M519.88,-489.25C519.88,-489.25 464.12,-489.25 464.12,-489.25 458.12,-489.25 452.12,-483.25 452.12,-477.25 452.12,-477.25 452.12,-465.25 452.12,-465.25 452.12,-459.25 458.12,-453.25 464.12,-453.25 464.12,-453.25 519.88,-453.25 519.88,-453.25 525.88,-453.25 531.88,-459.25 531.88,-465.25 531.88,-465.25 531.88,-477.25 531.88,-477.25 531.88,-483.25 525.88,-489.25 519.88,-489.25"/>
<text xml:space="preserve" text-anchor="middle" x="492" y="-468.45" font-family="Times,serif" font-size="14.00">【Push】</text>
</g>
<!-- [7]Playing[9]Judgement[5]Push!&#45;&gt;[7]Playing[4]Push -->
<g id="edge44" class="edge">
<title>[7]Playing[9]Judgement[5]Push!&#45;&gt;[7]Playing[4]Push</title>
<path fill="none" stroke="red" d="M492,-525.3C492,-517.93 492,-509.09 492,-500.76"/>
<polygon fill="red" stroke="red" points="495.5,-501.04 492,-491.04 488.5,-501.04 495.5,-501.04"/>
</g>
<!-- [7]Playing[10]Dealer Win -->
<g id="node35" class="node">
<title>[7]Playing[10]Dealer Win</title>
<path fill="white" stroke="black" d="M824,-489.25C824,-489.25 724,-489.25 724,-489.25 718,-489.25 712,-483.25 712,-477.25 712,-477.25 712,-465.25 712,-465.25 712,-459.25 718,-453.25 724,-453.25 724,-453.25 824,-453.25 824,-453.25 830,-453.25 836,-459.25 836,-465.25 836,-465.25 836,-477.25 836,-477.25 836,-483.25 830,-489.25 824,-489.25"/>
<text xml:space="preserve" text-anchor="middle" x="774" y="-468.45" font-family="Times,serif" font-size="14.00">【Dealer Win】</text>
</g>
<!-- [7]Playing[9]Judgement[11]Dealer Win!&#45;&gt;[7]Playing[10]Dealer Win -->
<g id="edge46" class="edge">
<title>[7]Playing[9]Judgement[11]Dealer Win!&#45;&gt;[7]Playing[10]Dealer Win</title>
<path fill="none" stroke="red" d="M755.81,-525.3C758.39,-517.77 761.51,-508.69 764.42,-500.19"/>
<polygon fill="red" stroke="red" points="767.65,-501.55 767.59,-490.96 761.03,-499.28 767.65,-501.55"/>
</g>
<!-- [7]Playing[13]Blackjack Win[6]Return -->
<g id="node32" class="node">
<title>[7]Playing[13]Blackjack Win[6]Return</title>
<text xml:space="preserve" text-anchor="middle" x="636" y="-394.57" font-family="Times,serif" font-size="14.00">[Return]</text>
</g>
<!-- [7]Playing[13]Blackjack Win&#45;&gt;[7]Playing[13]Blackjack Win[6]Return -->
<g id="edge47" class="edge">
<title>[7]Playing[13]Blackjack Win&#45;&gt;[7]Playing[13]Blackjack Win[6]Return</title>
<path fill="none" stroke="red" d="M625.46,-452.95C627.66,-441.93 630.5,-427.75 632.68,-416.87"/>
</g>
<!-- [7]Playing[13]Blackjack Win[6]Return&#45;&gt;[10]Black Jack[4]Idle -->
<g id="edge48" class="edge">
<title>[7]Playing[13]Blackjack Win[6]Return&#45;&gt;[10]Black Jack[4]Idle</title>
<path fill="none" stroke="red" d="M651.49,-381.3C659.01,-373.09 668.19,-363.04 676.54,-353.91"/>
<polygon fill="red" stroke="red" points="679.02,-356.38 683.18,-346.64 673.85,-351.66 679.02,-356.38"/>
</g>
<!-- [7]Playing[4]Push[6]Return -->
<g id="node34" class="node">
<title>[7]Playing[4]Push[6]Return</title>
<text xml:space="preserve" text-anchor="middle" x="510" y="-394.57" font-family="Times,serif" font-size="14.00">[Return]</text>
</g>
<!-- [7]Playing[4]Push&#45;&gt;[7]Playing[4]Push[6]Return -->
<g id="edge49" class="edge">
<title>[7]Playing[4]Push&#45;&gt;[7]Playing[4]Push[6]Return</title>
<path fill="none" stroke="red" d="M496.45,-452.95C499.28,-441.93 502.93,-427.75 505.73,-416.87"/>
</g>
<!-- [7]Playing[4]Push[6]Return&#45;&gt;[10]Black Jack[4]Idle -->
<g id="edge50" class="edge">
<title>[7]Playing[4]Push[6]Return&#45;&gt;[10]Black Jack[4]Idle</title>
<path fill="none" stroke="red" d="M547.99,-384.25C578.35,-373.07 621.03,-357.34 653.44,-345.4"/>
<polygon fill="red" stroke="red" points="654.41,-348.78 662.58,-342.03 651.99,-342.21 654.41,-348.78"/>
</g>
<!-- [7]Playing[10]Dealer Win[6]Return -->
<g id="node36" class="node">
<title>[7]Playing[10]Dealer Win[6]Return</title>
<text xml:space="preserve" text-anchor="middle" x="759" y="-394.57" font-family="Times,serif" font-size="14.00">[Return]</text>
</g>
<!-- [7]Playing[10]Dealer Win&#45;&gt;[7]Playing[10]Dealer Win[6]Return -->
<g id="edge51" class="edge">
<title>[7]Playing[10]Dealer Win&#45;&gt;[7]Playing[10]Dealer Win[6]Return</title>
<path fill="none" stroke="red" d="M770.29,-452.95C767.93,-441.93 764.89,-427.75 762.56,-416.87"/>
</g>
<!-- [7]Playing[10]Dealer Win[6]Return&#45;&gt;[10]Black Jack[4]Idle -->
<g id="edge52" class="edge">
<title>[7]Playing[10]Dealer Win[6]Return&#45;&gt;[10]Black Jack[4]Idle</title>
<path fill="none" stroke="red" d="M744.72,-381.3C737.86,-373.17 729.5,-363.25 721.87,-354.19"/>
<polygon fill="red" stroke="red" points="724.66,-352.07 715.54,-346.68 719.3,-356.58 724.66,-352.07"/>
</g>
<!-- [7]Playing[21]Hit or Stand (Player)[3]Hit -->
<g id="node38" class="node">
<title>[7]Playing[21]Hit or Stand (Player)[3]Hit</title>
<text xml:space="preserve" text-anchor="middle" x="829" y="-840.08" font-family="Times,serif" font-size="14.00">[Hit]</text>
</g>
<!-- [7]Playing[21]Hit or Stand (Player)&#45;&gt;[7]Playing[21]Hit or Stand (Player)[3]Hit -->
<g id="edge53" class="edge">
<title>[7]Playing[21]Hit or Stand (Player)&#45;&gt;[7]Playing[21]Hit or Stand (Player)[3]Hit</title>
<path fill="none" stroke="blue" d="M739.32,-904.89C758.57,-892.19 784.54,-875.07 803.58,-862.51"/>
</g>
<!-- [7]Playing[21]Hit or Stand (Player)[5]Stand -->
<g id="node39" class="node">
<title>[7]Playing[21]Hit or Stand (Player)[5]Stand</title>
<text xml:space="preserve" text-anchor="middle" x="618" y="-840.08" font-family="Times,serif" font-size="14.00">[Stand]</text>
</g>
<!-- [7]Playing[21]Hit or Stand (Player)&#45;&gt;[7]Playing[21]Hit or Stand (Player)[5]Stand -->
<g id="edge55" class="edge">
<title>[7]Playing[21]Hit or Stand (Player)&#45;&gt;[7]Playing[21]Hit or Stand (Player)[5]Stand</title>
<path fill="none" stroke="blue" d="M691.44,-904.89C675.68,-892.19 654.41,-875.07 638.82,-862.51"/>
</g>
<!-- [7]Playing[21]Hit or Stand (Player)[4]Bust -->
<g id="node40" class="node">
<title>[7]Playing[21]Hit or Stand (Player)[4]Bust</title>
<text xml:space="preserve" text-anchor="middle" x="805" y="-610.58" font-family="Times,serif" font-size="14.00">[Bust]</text>
</g>
<!-- [7]Playing[21]Hit or Stand (Player)&#45;&gt;[7]Playing[21]Hit or Stand (Player)[4]Bust -->
<g id="edge57" class="edge">
<title>[7]Playing[21]Hit or Stand (Player)&#45;&gt;[7]Playing[21]Hit or Stand (Player)[4]Bust</title>
<path fill="none" stroke="red" d="M739.23,-904.82C751.72,-895 765.53,-881.58 773,-866 791.95,-826.46 779.58,-712.28 788,-669.25 790.41,-656.92 794.76,-643.45 798.45,-633.17"/>
</g>
<!-- [7]Playing[21]Hit or Stand (Player)[9]Blackjack -->
<g id="node41" class="node">
<title>[7]Playing[21]Hit or Stand (Player)[9]Blackjack</title>
<text xml:space="preserve" text-anchor="middle" x="717" y="-840.08" font-family="Times,serif" font-size="14.00">[Blackjack]</text>
</g>
<!-- [7]Playing[21]Hit or Stand (Player)&#45;&gt;[7]Playing[21]Hit or Stand (Player)[9]Blackjack -->
<g id="edge59" class="edge">
<title>[7]Playing[21]Hit or Stand (Player)&#45;&gt;[7]Playing[21]Hit or Stand (Player)[9]Blackjack</title>
<path fill="none" stroke="red" d="M713.91,-904.89C714.57,-892.19 715.47,-875.07 716.12,-862.51"/>
</g>
<!-- [7]Playing[21]Hit or Stand (Player)[3]Hit&#45;&gt;[7]Playing[24]Dealing a Card to Player -->
<g id="edge54" class="edge">
<title>[7]Playing[21]Hit or Stand (Player)[3]Hit&#45;&gt;[7]Playing[24]Dealing a Card to Player</title>
<path fill="none" stroke="blue" d="M830.07,-862.69C831.31,-898.26 828.69,-980.89 782,-1023 766.77,-1036.74 747.76,-1046.96 728.43,-1054.55"/>
<polygon fill="blue" stroke="blue" points="727.28,-1051.25 719.1,-1057.98 729.69,-1057.82 727.28,-1051.25"/>
</g>
<!-- [7]Playing[21]Hit or Stand (Player)[5]Stand&#45;&gt;[7]Playing[21]Hit or Stand (Dealer) -->
<g id="edge56" class="edge">
<title>[7]Playing[21]Hit or Stand (Player)[5]Stand&#45;&gt;[7]Playing[21]Hit or Stand (Dealer)</title>
<path fill="none" stroke="blue" d="M583.97,-827.87C580.61,-826.37 577.25,-824.89 574,-823.5 544.37,-810.84 511,-797.56 483.55,-786.9"/>
<polygon fill="blue" stroke="blue" points="484.95,-783.69 474.36,-783.35 482.43,-790.22 484.95,-783.69"/>
</g>
<!-- [7]Playing[21]Hit or Stand (Player)[4]Bust&#45;&gt;[7]Playing[10]Dealer Win -->
<g id="edge58" class="edge">
<title>[7]Playing[21]Hit or Stand (Player)[4]Bust&#45;&gt;[7]Playing[10]Dealer Win</title>
<path fill="none" stroke="red" d="M811.14,-597.38C816.82,-579.12 823.24,-549.38 815,-525.25 811.7,-515.6 805.85,-506.34 799.59,-498.34"/>
<polygon fill="red" stroke="red" points="802.28,-496.1 793.15,-490.73 796.94,-500.62 802.28,-496.1"/>
</g>
<!-- [7]Playing[21]Hit or Stand (Player)[9]Blackjack&#45;&gt;[7]Playing[21]Hit or Stand (Dealer) -->
<g id="edge60" class="edge">
<title>[7]Playing[21]Hit or Stand (Player)[9]Blackjack&#45;&gt;[7]Playing[21]Hit or Stand (Dealer)</title>
<path fill="none" stroke="red" d="M671.29,-826.78C667.82,-825.63 664.36,-824.52 661,-823.5 614.03,-809.22 560.98,-795.82 517.28,-785.49"/>
<polygon fill="red" stroke="red" points="518.1,-782.09 507.56,-783.22 516.5,-788.91 518.1,-782.09"/>
</g>
<!-- [5]Lobby[5]Entry[10]Go to Home -->
<g id="node43" class="node">
<title>[5]Lobby[5]Entry[10]Go to Home</title>
<text xml:space="preserve" text-anchor="middle" x="1070" y="-101.33" font-family="Times,serif" font-size="14.00">[Go to Home]</text>
</g>
<!-- [5]Lobby[5]Entry&#45;&gt;[5]Lobby[5]Entry[10]Go to Home -->
<g id="edge1" class="edge">
<title>[5]Lobby[5]Entry&#45;&gt;[5]Lobby[5]Entry[10]Go to Home</title>
<path fill="none" stroke="blue" d="M1070,-159.7C1070,-148.68 1070,-134.5 1070,-123.62"/>
</g>
<!-- [5]Lobby[5]Entry[16]Entry Black Jack -->
<g id="node44" class="node">
<title>[5]Lobby[5]Entry[16]Entry Black Jack</title>
<text xml:space="preserve" text-anchor="middle" x="1216" y="-101.33" font-family="Times,serif" font-size="14.00">[Entry Black Jack]</text>
</g>
<!-- [5]Lobby[5]Entry&#45;&gt;[5]Lobby[5]Entry[16]Entry Black Jack -->
<g id="edge3" class="edge">
<title>[5]Lobby[5]Entry&#45;&gt;[5]Lobby[5]Entry[16]Entry Black Jack</title>
<path fill="none" stroke="blue" d="M1106.47,-159.52C1129.19,-148.62 1158.27,-134.68 1180.75,-123.9"/>
</g>
<!-- [5]Lobby[4]Home -->
<g id="node45" class="node">
<title>[5]Lobby[4]Home</title>
<path fill="white" stroke="black" d="M1101.25,-52C1101.25,-52 1038.75,-52 1038.75,-52 1032.75,-52 1026.75,-46 1026.75,-40 1026.75,-40 1026.75,-28 1026.75,-28 1026.75,-22 1032.75,-16 1038.75,-16 1038.75,-16 1101.25,-16 1101.25,-16 1107.25,-16 1113.25,-22 1113.25,-28 1113.25,-28 1113.25,-40 1113.25,-40 1113.25,-46 1107.25,-52 1101.25,-52"/>
<text xml:space="preserve" text-anchor="middle" x="1070" y="-31.2" font-family="Times,serif" font-size="14.00">【Home】</text>
</g>
<!-- [5]Lobby[5]Entry[10]Go to Home&#45;&gt;[5]Lobby[4]Home -->
<g id="edge2" class="edge">
<title>[5]Lobby[5]Entry[10]Go to Home&#45;&gt;[5]Lobby[4]Home</title>
<path fill="none" stroke="blue" d="M1070,-88.05C1070,-80.68 1070,-71.84 1070,-63.51"/>
<polygon fill="blue" stroke="blue" points="1073.5,-63.79 1070,-53.79 1066.5,-63.79 1073.5,-63.79"/>
</g>
<!-- [5]Lobby[5]Entry[16]Entry Black Jack&#45;&gt;[10]Black Jack[5]Hello -->
<g id="edge4" class="edge">
<title>[5]Lobby[5]Entry[16]Entry Black Jack&#45;&gt;[10]Black Jack[5]Hello</title>
<path fill="none" stroke="blue" d="M1208.67,-123.86C1197.63,-150.85 1178,-205.67 1178,-254.25 1178,-328.25 1178,-328.25 1178,-328.25 1178,-419.4 1051.58,-452.64 977.47,-464.29"/>
<polygon fill="blue" stroke="blue" points="977.37,-460.77 967.99,-465.7 978.4,-467.7 977.37,-460.77"/>
</g>
</g>
</svg>
